<?xml version="1.0" encoding="UTF-8" standalone="no"?>
<!-- Created with Inkscape (http://www.inkscape.org/) -->

<svg
   width="68.994987mm"
   height="50.223797mm"
   viewBox="0 0 68.994987 50.223797"
   version="1.1"
   id="svg10017"
   inkscape:version="1.1 (1:1.1+202105261517+ce6663b3b7)"
   sodipodi:docname="1-pen-lighthouse.svg"
   xmlns:inkscape="http://www.inkscape.org/namespaces/inkscape"
   xmlns:sodipodi="http://sodipodi.sourceforge.net/DTD/sodipodi-0.dtd"
   xmlns:xlink="http://www.w3.org/1999/xlink"
   xmlns="http://www.w3.org/2000/svg"
   xmlns:svg="http://www.w3.org/2000/svg">
  <sodipodi:namedview
     id="namedview10019"
     pagecolor="#ffffff"
     bordercolor="#666666"
     borderopacity="1.0"
     inkscape:pageshadow="2"
     inkscape:pageopacity="0.0"
     inkscape:pagecheckerboard="0"
     inkscape:document-units="mm"
     showgrid="false"
     inkscape:zoom="0.75187991"
     inkscape:cx="120.36497"
     inkscape:cy="169.57495"
     inkscape:window-width="1848"
     inkscape:window-height="1016"
     inkscape:window-x="72"
     inkscape:window-y="27"
     inkscape:window-maximized="1"
     inkscape:current-layer="layer1" />
  <defs
     id="defs10014">
    <linearGradient
       inkscape:collect="always"
       xlink:href="#linearGradient18950"
       id="linearGradient18952"
       x1="-3179.9602"
       y1="-4156.0327"
       x2="-3179.5312"
       y2="-4332.6855"
       gradientUnits="userSpaceOnUse" />
    <linearGradient
       inkscape:collect="always"
       id="linearGradient18950">
      <stop
         style="stop-color:#27759b;stop-opacity:1"
         offset="0"
         id="stop18946" />
      <stop
         style="stop-color:#00ccff;stop-opacity:1"
         offset="1"
         id="stop18948" />
    </linearGradient>
    <linearGradient
       inkscape:collect="always"
       xlink:href="#linearGradient18921"
       id="linearGradient18923"
       x1="-3070.6113"
       y1="-4162.8511"
       x2="-3292.0872"
       y2="-4162.5986"
       gradientUnits="userSpaceOnUse" />
    <linearGradient
       inkscape:collect="always"
       id="linearGradient18921">
      <stop
         style="stop-color:#00ccff;stop-opacity:1"
         offset="0"
         id="stop18917" />
      <stop
         id="stop18927"
         offset="0.31584626"
         style="stop-color:#1f84af;stop-opacity:1;" />
      <stop
         id="stop18925"
         offset="0.50399143"
         style="stop-color:#26749e;stop-opacity:1" />
      <stop
         style="stop-color:#1d87b2;stop-opacity:1;"
         offset="0.70694935"
         id="stop18929" />
      <stop
         style="stop-color:#00ccff;stop-opacity:1"
         offset="1"
         id="stop18919" />
    </linearGradient>
  </defs>
  <g
     inkscape:label="Layer 1"
     inkscape:groupmode="layer"
     id="layer1"
     transform="translate(-73.224046,-103.76311)">
    <g
       transform="matrix(1.0813831,0,0,1.0813831,1017.9769,1343.4135)"
       id="g18976">
      <path
         id="path18954"
         d="m -871.82762,-1143.2284 18.63606,4.2979 7.74115,1.6836 -27.34717,-2.4138 a 19.777944,19.777944 0 0 1 0.96996,-3.5677 z"
         style="fill:#ebad28;fill-opacity:1;stroke:none;stroke-width:0.218811;stroke-linecap:round;stroke-linejoin:round;stroke-miterlimit:4;stroke-dasharray:none;stroke-opacity:1"
         inkscape:connector-curvature="0" />
      <path
         id="path18956"
         d="m -873.01565,-1137.6954 a 19.777944,19.777944 0 0 0 -0.1075,2.0174 19.777944,19.777944 0 0 1 0.1075,-2.0174 z"
         style="fill:#aa8800;fill-opacity:1;stroke:none;stroke-width:0.218811;stroke-linecap:round;stroke-linejoin:round;stroke-miterlimit:4;stroke-dasharray:none;stroke-opacity:1"
         inkscape:connector-curvature="0" />
      <path
         id="path18958"
         d="m -873.12315,-1135.678 a 19.777944,19.777944 0 0 0 0.0388,1.0517 19.777944,19.777944 0 0 1 -0.0388,-1.0517 z"
         style="fill:#aa8800;fill-opacity:1;stroke:none;stroke-width:0.218811;stroke-linecap:round;stroke-linejoin:round;stroke-miterlimit:4;stroke-dasharray:none;stroke-opacity:1"
         inkscape:connector-curvature="0" />
      <path
         id="path18960"
         d="m -845.45041,-1134.4449 -7.74115,1.6764 -18.73581,4.3212 a 19.777944,19.777944 0 0 1 -1.10897,-5.1672 19.777944,19.777944 0 0 0 0.18396,1.5813 z"
         style="fill:#ba2730;fill-opacity:1;stroke:none;stroke-width:0.218811;stroke-linecap:round;stroke-linejoin:round;stroke-miterlimit:4;stroke-dasharray:none;stroke-opacity:1"
         inkscape:connector-curvature="0" />
      <path
         id="path18962"
         d="m -873.34382,-1139.133 27.36424,2.4153 v 1.7436 l -27.40197,2.4117 a 19.777944,19.777944 0 0 1 -0.27077,-3.1156 19.777944,19.777944 0 0 1 0.3085,-3.455 z"
         style="fill:#e48413;fill-opacity:1;stroke:none;stroke-width:0.218811;stroke-linecap:round;stroke-linejoin:round;stroke-miterlimit:4;stroke-dasharray:none;stroke-opacity:1"
         inkscape:connector-curvature="0" />
      <path
         style="fill:#ebad28;fill-opacity:1;stroke:none;stroke-width:0.218811;stroke-linecap:round;stroke-linejoin:round;stroke-miterlimit:4;stroke-dasharray:none;stroke-opacity:1"
         d="m -811.67448,-1143.2284 -18.63606,4.2979 -7.74115,1.6836 27.34717,-2.4138 a 19.777944,19.777944 0 0 0 -0.96996,-3.5677 z"
         id="path18908"
         inkscape:connector-curvature="0" />
      <path
         style="fill:#aa8800;fill-opacity:1;stroke:none;stroke-width:0.218811;stroke-linecap:round;stroke-linejoin:round;stroke-miterlimit:4;stroke-dasharray:none;stroke-opacity:1"
         d="m -810.48645,-1137.6954 a 19.777944,19.777944 0 0 1 0.1075,2.0174 19.777944,19.777944 0 0 0 -0.1075,-2.0174 z"
         id="path18906"
         inkscape:connector-curvature="0" />
      <path
         style="fill:#aa8800;fill-opacity:1;stroke:none;stroke-width:0.218811;stroke-linecap:round;stroke-linejoin:round;stroke-miterlimit:4;stroke-dasharray:none;stroke-opacity:1"
         d="m -810.37895,-1135.678 a 19.777944,19.777944 0 0 1 -0.0388,1.0517 19.777944,19.777944 0 0 0 0.0388,-1.0517 z"
         id="path18904"
         inkscape:connector-curvature="0" />
      <path
         style="fill:#ba2730;fill-opacity:1;stroke:none;stroke-width:0.218811;stroke-linecap:round;stroke-linejoin:round;stroke-miterlimit:4;stroke-dasharray:none;stroke-opacity:1"
         d="m -838.05169,-1134.4449 7.74115,1.6763 18.73581,4.3212 a 19.777944,19.777944 0 0 0 1.10897,-5.1671 19.777944,19.777944 0 0 1 -0.18396,1.5813 z"
         id="path17187"
         inkscape:connector-curvature="0" />
      <path
         style="fill:#e48413;fill-opacity:1;stroke:none;stroke-width:0.218811;stroke-linecap:round;stroke-linejoin:round;stroke-miterlimit:4;stroke-dasharray:none;stroke-opacity:1"
         d="m -810.15828,-1139.133 -27.36424,2.4153 v 1.7436 l 27.40197,2.4117 a 19.777944,19.777944 0 0 0 0.27077,-3.1156 19.777944,19.777944 0 0 0 -0.3085,-3.455 z"
         id="path17189"
         inkscape:connector-curvature="0" />
      <path
         inkscape:connector-curvature="0"
         style="opacity:1;fill:url(#linearGradient18952);fill-opacity:1;stroke-width:0.999999"
         d="m -3182.6777,-4332.6855 -0.2188,1.125 c -0.6193,3.6461 -2.4171,9.0256 -4.2265,12.6328 -1.1302,2.2495 -2.9198,5.0615 -4.4844,7.0468 -1.2987,1.6475 -3.9551,4.2358 -5.6211,5.4766 -1.1728,0.8719 -1.3613,1.2754 -1.3613,1.2754 l 2.4296,23.625 h 31.4356 l 2.5215,-23.625 c 0,0 -0.1891,-0.3982 -1.3594,-1.2754 -1.666,-1.2408 -4.3244,-3.8291 -5.623,-5.4766 -1.5643,-1.9853 -3.354,-4.7973 -4.4825,-7.0468 -1.8101,-3.6072 -3.6099,-8.9867 -4.2265,-12.6328 l -0.1914,-1.125 h -0.7227 -0.7226 v 14.2851 14.2871 l 0.5097,0.2305 c 0.5999,0.2646 1.3472,0.9601 1.6348,1.5176 0.8785,1.6992 0.1903,3.7416 -1.5547,4.5761 -0.9109,0.4404 -1.9703,0.4404 -2.8809,0 -1.7394,-0.8345 -2.4332,-2.8769 -1.5547,-4.5761 0.2971,-0.5549 1.0392,-1.25 1.6348,-1.5176 l 0.5098,-0.2305 v -14.2871 -14.2851 h -0.7227 z m -21.3457,54.6835 v 7.6211 h 47.2539 v -7.6211 z m 9.1015,11.1309 -4.041,31.4375 34.5723,-19.9609 -1.4785,-11.4766 z m 31.2227,16.8652 -36.0723,20.8223 -3.4531,26.8945 42.5039,-24.5429 z m -16.6973,17.5821 c 1.9723,0 3.5606,1.588 3.5606,3.5605 v 4.2617 h -7.1211 v -4.2617 c 0,-1.9725 1.5878,-3.5605 3.5605,-3.5605 z m 20.3653,10.9765 -44.002,25.4024 -3.4805,27.084 50.4883,-29.1504 z m -20.3653,19.3965 c 2.4645,0 4.4492,1.9842 4.4492,4.4492 v 5.3243 h -8.8984 v -5.3243 c 0,-2.465 1.9844,-4.4492 4.4492,-4.4492 z m 24.0606,9.3223 -51.9786,30.0058 -0.7167,5.5645 h 57.2714 z"
         transform="scale(0.26458333)"
         id="path17330" />
      <path
         inkscape:connector-curvature="0"
         style="opacity:1;fill:url(#linearGradient18923);fill-opacity:1;stroke:none;stroke-width:0.500003;stroke-linecap:round;stroke-linejoin:round;stroke-miterlimit:4;stroke-dasharray:none;stroke-opacity:1"
         d="m -3210.2227,-4165.7598 c 0,0 -1.5947,0.042 -2.1074,0.012 0,0 -0.6751,1.5913 -1.4511,3.455 -0.7761,1.8637 -1.8184,3.9925 -2.3067,5.0821 0,0 1.8786,0.032 2.582,0 0,0 0.6436,-1.5671 1.3516,-3.4277 0.7062,-1.8558 1.489,-3.9942 1.9316,-5.1192 z m -4.9804,0.029 c 0,0 -1.5063,0.042 -1.9883,0.012 0,0 -0.8106,1.5888 -1.7793,3.4493 -0.9688,1.8604 -2.4249,3.9768 -3.0703,5.0625 0,0 1.7663,0.032 2.4316,0 0,0 0.9477,-1.5632 1.9278,-3.4121 0.98,-1.8489 1.8924,-3.9875 2.4785,-5.1094 z m 64.2343,0.02 c 0.4455,1.1239 1.2328,3.2611 1.9434,5.1152 0.7125,1.8589 1.3613,3.4238 1.3613,3.4238 0.7035,0.032 2.5821,0 2.5821,0 -0.4909,-1.0884 -1.5398,-3.2163 -2.3203,-5.0781 -0.7806,-1.8618 -1.459,-3.4492 -1.459,-3.4492 -0.5127,0.031 -2.1075,-0.01 -2.1075,-0.01 z m -69.08,0.01 c 0,0 -1.4956,0.042 -1.9746,0.012 0,0 -0.9378,1.5863 -2.0996,3.4434 -1.1619,1.857 -3.0322,3.961 -3.8301,5.0429 0,0 1.7548,0.034 2.416,0 0,0 1.2347,-1.5543 2.4824,-3.3965 1.2478,-1.8421 2.286,-3.9826 3.0059,-5.1015 z m 74.0605,0.01 c 0.5888,1.1204 1.5077,3.257 2.4922,5.1036 0.9846,1.8465 1.9336,3.4082 1.9336,3.4082 0.6654,0.032 2.4336,-0.01 2.4336,-0.01 -0.648,-1.0841 -2.1107,-3.1966 -3.084,-5.0547 -0.9732,-1.8581 -1.7871,-3.4453 -1.7871,-3.4453 -0.4819,0.032 -1.9883,-0.01 -1.9883,-0.01 z m 4.8457,0.016 c 0.7226,1.1172 1.7674,3.2546 3.0196,5.0937 1.2522,1.8392 2.4902,3.3906 2.4902,3.3906 0.6612,0.032 2.416,-0.01 2.416,-0.01 -0.8005,-1.08 -2.6755,-3.179 -3.8418,-5.0332 -1.1663,-1.8542 -2.1094,-3.4395 -2.1094,-3.4395 -0.4789,0.032 -1.9746,-0.01 -1.9746,-0.01 z m -83.7207,0 c 0,0 -1.4821,0.042 -1.957,0.012 0,0 -1.0609,1.586 -2.416,3.4395 -1.3551,1.8535 -3.6345,3.9451 -4.5801,5.0234 0,0 1.7372,0.032 2.3926,0 0,0 1.5143,-1.5456 3.0293,-3.3809 1.5149,-1.8353 2.6836,-3.9755 3.5312,-5.0918 z m 88.5352,0.014 c 0.8503,1.1143 2.0236,3.2504 3.5429,5.082 1.5194,1.8317 3.0391,3.375 3.0391,3.375 0.6554,0.032 2.3926,0 2.3926,0 -0.9482,-1.076 -3.2322,-3.1634 -4.5918,-5.0137 -1.3596,-1.8502 -2.4258,-3.4335 -2.4258,-3.4335 -0.4748,0.032 -1.957,-0.01 -1.957,-0.01 z m -93.3164,0.014 c 0,0 -1.4774,0.042 -1.9512,0.012 0,0 -1.1775,1.5857 -2.7266,3.4355 -1.549,1.8499 -4.2333,3.929 -5.3222,5.0039 0,0 1.7279,0.032 2.3808,0 0,0 1.791,-1.5388 3.5723,-3.3672 1.7813,-1.8284 3.0773,-3.9682 4.0469,-5.082 z m 98.0976,0 c 0.9723,1.1115 2.2749,3.2482 4.0606,5.0723 1.7857,1.824 3.5781,3.3574 3.5781,3.3574 0.653,0.032 2.3828,0 2.3828,0 -1.0915,-1.0723 -3.7824,-3.1441 -5.3359,-4.9902 -1.5536,-1.8461 -2.7344,-3.4297 -2.7344,-3.4297 -0.4737,0.032 -1.9512,-0.01 -1.9512,-0.01 z m 4.7578,0.016 c 1.0889,1.109 2.5205,3.2462 4.5723,5.0625 2.0518,1.8164 4.1133,3.3418 4.1133,3.3418 0.6488,0.032 2.3652,-0.01 2.3652,-0.01 -1.2303,-1.0686 -4.3243,-3.1269 -6.0722,-4.9688 -1.748,-1.8418 -3.0391,-3.4238 -3.0391,-3.4238 -0.4712,0.032 -1.9395,-0.01 -1.9395,-0.01 z m -107.6132,0.01 c 0,0 -1.4682,0.042 -1.9395,0.012 0,0 -1.2878,1.5836 -3.0312,3.4297 -1.7435,1.8461 -4.831,3.9128 -6.0586,4.9844 0,0 1.7165,0.032 2.3652,0 0,0 2.0561,-1.5302 4.1035,-3.3515 2.0474,-1.8214 3.4744,-3.9607 4.5606,-5.0723 z m 112.3418,0.01 c 1.2004,1.1066 2.7648,3.2421 5.082,5.0507 1.1212,0.8752 2.4689,1.7597 3.2988,2.336 0.8762,0.6085 1.3399,0.9902 1.3399,0.9902 0.6428,0.032 2.3418,0 2.3418,0 -1.3644,-1.0651 -4.8583,-3.1098 -6.8008,-4.9473 -1.9425,-1.8374 -3.3399,-3.4199 -3.3399,-3.4199 -0.4673,0.032 -1.9218,-0.01 -1.9218,-0.01 z m 4.6933,0.016 c 1.3071,1.1044 3.0043,3.2402 5.586,5.041 1.2395,0.8647 2.7648,1.7573 3.6757,2.3242 0.9734,0.6057 1.4805,0.9864 1.4805,0.9864 0.6402,0.032 2.332,-0.01 2.332,-0.01 -1.4941,-1.0618 -5.3837,-3.0928 -7.5215,-4.9258 -2.1377,-1.833 -3.6367,-3.4141 -3.6367,-3.4141 -0.4664,0.032 -1.916,-0.01 -1.916,-0.01 z m -121.7637,0.01 c 0,0 -1.4544,0.04 -1.9218,0.01 0,0 -1.394,1.5856 -3.3321,3.4278 -1.938,1.8421 -5.4253,3.8964 -6.7871,4.9648 0,0 1.6991,0.032 2.3418,0 0,0 0.4612,-0.3835 1.336,-0.9941 0.8284,-0.5783 2.1758,-1.4659 3.2949,-2.3437 2.3128,-1.8143 3.8706,-3.953 5.0683,-5.0626 z m 126.4356,0.01 c 1.4093,1.1024 3.2384,3.2364 6.084,5.0293 1.355,0.8538 3.0614,1.7555 4.0488,2.3125 1.0687,0.6029 1.6191,0.9824 1.6191,0.9824 0.6342,0.032 2.3086,0 2.3086,0 -1.6193,-1.0586 -5.9011,-3.0779 -8.2343,-4.9062 -1.0639,-0.8337 -2.1115,-1.8523 -2.7149,-2.3946 -0.691,-0.6209 -1.2129,-1.0136 -1.2129,-1.0136 -0.4629,0.032 -1.8984,-0.01 -1.8984,-0.01 z m 4.6367,0.016 c 1.5071,1.1005 3.4718,3.2346 6.5801,5.0196 1.4666,0.8422 3.3575,1.7541 4.416,2.3008 1.162,0.6001 1.7559,0.9785 1.7559,0.9785 0.6314,0.032 2.2988,-0.01 2.2988,-0.01 -1.7402,-1.0556 -6.412,-3.0592 -8.9414,-4.8828 -1.1689,-0.8427 -2.2638,-1.8397 -2.9219,-2.3926 -0.7379,-0.6199 -1.2949,-1.0117 -1.2949,-1.0117 -0.4622,0.032 -1.8926,-0.01 -1.8926,-0.01 z m -135.7656,0 c 0,0 -1.4495,0.04 -1.916,0.01 0,0 -1.4936,1.5837 -3.627,3.4218 -2.1333,1.8382 -6.0182,3.8799 -7.5098,4.9453 0,0 1.69,0.032 2.3301,0 0,0 0.5086,-0.3802 1.4805,-0.9883 0.9095,-0.5691 2.4324,-1.4663 3.6699,-2.334 2.5773,-1.807 4.2679,-3.9451 5.5723,-5.0527 z m 140.3789,0.014 c 1.601,1.0987 3.7037,3.2308 7.0742,5.0078 1.5739,0.8297 3.6576,1.7535 4.7813,2.289 1.2535,0.5974 1.8847,0.9747 1.8847,0.9747 0.6269,0.032 2.2832,0 2.2832,0 -1.8566,-1.0527 -6.9145,-3.0445 -9.6406,-4.8632 -1.2735,-0.8497 -2.4156,-1.8271 -3.127,-2.3887 -0.7837,-0.6188 -1.375,-1.0098 -1.375,-1.0098 -0.46,0.032 -1.8808,-0.01 -1.8808,-0.01 z m -145.0488,0.012 c 0,0 -1.4375,0.042 -1.9004,0.012 0,0 -0.5215,0.393 -1.211,1.0156 -0.602,0.5437 -1.6471,1.5661 -2.709,2.4024 -2.3288,1.834 -6.6059,3.8632 -8.2226,4.9258 0,0 1.6745,0.031 2.3086,0 0,0 0.55,-0.3808 1.6172,-0.9863 0.986,-0.5595 2.69,-1.4653 4.0429,-2.3223 2.8412,-1.7998 4.6677,-3.9391 6.0743,-5.0449 z m 149.6328,0 c 1.6912,1.0971 3.9327,3.2291 7.5644,4.998 1.6757,0.8162 3.9607,1.7541 5.1426,2.2774 1.3431,0.5946 2.0137,0.9707 2.0137,0.9707 0.6208,0.032 2.2597,-0.01 2.2597,-0.01 -1.9685,-1.05 -7.4071,-3.028 -10.33,-4.8418 -1.3781,-0.8551 -2.5709,-1.8139 -3.334,-2.3828 -0.8287,-0.6177 -1.4512,-1.0097 -1.4512,-1.0097 -0.4569,0.032 -1.8652,-0.01 -1.8652,-0.01 z m 4.5527,0.016 c 1.7778,1.0956 4.1571,3.2255 8.0488,4.9863 1.9459,0.8805 4.0763,1.6774 5.4981,2.2657 1.4307,0.5919 2.1387,0.9668 2.1387,0.9668 0.6177,0.032 2.25,0 2.25,0 -2.0764,-1.0475 -7.8933,-3.0117 -11.0137,-4.8204 -1.4827,-0.8593 -2.7252,-1.8058 -3.5391,-2.3808 -0.8728,-0.6167 -1.5273,-1.0078 -1.5273,-1.0078 -0.4563,0.032 -1.8555,-0.01 -1.8555,-0.01 z m -158.8223,0.01 c 0,0 -1.4303,0.042 -1.8925,0.012 0,0 -0.5586,0.392 -1.295,1.0137 -0.6567,0.5545 -1.7472,1.553 -2.914,2.3985 -2.5251,1.8297 -7.1921,3.8464 -8.9297,4.9062 0,0 1.6674,0.032 2.2988,0 0,0 0.5914,-0.3775 1.752,-0.9805 1.0571,-0.5493 2.9456,-1.4668 4.4101,-2.3125 3.104,-1.7925 5.0659,-3.931 6.5703,-5.0352 z m 163.3497,0.01 c 2.2199,1.3051 3.8992,3.0171 8.5351,4.9747 2.0754,0.8763 4.3426,1.6702 5.8496,2.2558 1.5164,0.5893 2.2598,0.9629 2.2598,0.9629 0.6132,0.032 2.2344,0 2.2344,0 -2.1798,-1.045 -8.3711,-2.9974 -11.6895,-4.8008 -1.5874,-0.8627 -2.8805,-1.7947 -3.7441,-2.375 -0.9163,-0.6157 -1.5996,-1.0058 -1.5996,-1.0058 -0.4546,0.032 -1.8457,-0.01 -1.8457,-0.01 z m -167.9629,0.02 c 0,0 -1.4207,0.042 -1.8809,0.012 0,0 -0.5908,0.391 -1.373,1.0117 -0.71,0.5633 -1.8516,1.5438 -3.1231,2.3965 -2.7217,1.8253 -7.7748,3.8295 -9.6289,4.8867 0,0 1.6564,0.032 2.2832,0 0,0 0.6327,-0.3781 1.8848,-0.9786 1.1223,-0.5382 3.2035,-1.4672 4.7754,-2.3007 3.3662,-1.7852 5.4641,-3.9228 7.0625,-5.0254 z m -4.586,0.027 c 0,0 -1.4063,0.041 -1.8633,0.01 0,0 -0.622,0.3919 -1.4492,1.0117 -0.7617,0.5707 -1.9521,1.5342 -3.3281,2.3926 -2.9185,1.8208 -8.3543,3.8124 -10.3203,4.8672 0,0 1.6409,0.032 2.2617,0 0,0 0.67,-0.3767 2.0117,-0.9746 1.1807,-0.5261 3.4631,-1.4708 5.1367,-2.291 3.6275,-1.7777 5.8622,-3.9125 7.5508,-5.0137 z m -4.5508,0.025 c 0,0 -1.401,0.043 -1.8574,0.012 0,0 -0.654,0.3929 -1.5254,1.0117 -0.8124,0.577 -2.0526,1.5238 -3.5332,2.3868 -3.116,1.8161 -8.9281,3.7952 -11.0019,4.8476 0,0 1.6323,0.033 2.25,0 0,0 0.7074,-0.3772 2.1367,-0.9726 1.4204,-0.5918 3.5485,-1.3942 5.4922,-2.2793 3.8874,-1.7703 6.2639,-3.906 8.039,-5.0059 z m -4.5273,0.027 c 0,0 -1.393,0.043 -1.8477,0.012 0,0 -0.6809,0.3919 -1.5957,1.0097 -0.8621,0.5824 -2.153,1.5183 -3.7382,2.3848 -3.314,1.8114 -9.5025,3.7778 -11.6797,4.8281 0,0 1.6231,0.032 2.2363,0 0,0 0.7409,-0.3758 2.2559,-0.9688 1.5056,-0.5893 3.7724,-1.3881 5.8457,-2.2695 4.6311,-1.9687 6.3066,-3.6837 8.5234,-4.9941 z"
         transform="scale(0.26458333)"
         id="path17587" />
    </g>
  </g>
</svg>
