<?xml version="1.0" encoding="UTF-8" standalone="no"?>
<!-- Created with Inkscape (http://www.inkscape.org/) -->

<svg
   width="45.766281mm"
   height="62.903439mm"
   viewBox="0 0 45.766281 62.903439"
   version="1.1"
   id="svg11963"
   inkscape:version="1.1 (1:1.1+202105261517+ce6663b3b7)"
   sodipodi:docname="7-night-star.svg"
   xmlns:inkscape="http://www.inkscape.org/namespaces/inkscape"
   xmlns:sodipodi="http://sodipodi.sourceforge.net/DTD/sodipodi-0.dtd"
   xmlns:xlink="http://www.w3.org/1999/xlink"
   xmlns="http://www.w3.org/2000/svg"
   xmlns:svg="http://www.w3.org/2000/svg">
  <sodipodi:namedview
     id="namedview11965"
     pagecolor="#ffffff"
     bordercolor="#666666"
     borderopacity="1.0"
     inkscape:pageshadow="2"
     inkscape:pageopacity="0.0"
     inkscape:pagecheckerboard="0"
     inkscape:document-units="mm"
     showgrid="false"
     inkscape:zoom="0.75187991"
     inkscape:cx="68.494981"
     inkscape:cy="129.67496"
     inkscape:window-width="1848"
     inkscape:window-height="1016"
     inkscape:window-x="72"
     inkscape:window-y="27"
     inkscape:window-maximized="1"
     inkscape:current-layer="layer1" />
  <defs
     id="defs11960">
    <linearGradient
       inkscape:collect="always"
       xlink:href="#linearGradient20074"
       id="linearGradient20076"
       x1="-1133.9452"
       y1="-2142.4822"
       x2="-1133.9445"
       y2="-1959.8914"
       gradientUnits="userSpaceOnUse"
       gradientTransform="matrix(0.34450475,0,0,0.34450475,500.29332,852.60089)" />
    <linearGradient
       inkscape:collect="always"
       id="linearGradient20074">
      <stop
         style="stop-color:#2c2ca0;stop-opacity:1"
         offset="0"
         id="stop20070" />
      <stop
         style="stop-color:#aa0088;stop-opacity:1"
         offset="1"
         id="stop20072" />
    </linearGradient>
  </defs>
  <g
     inkscape:label="Layer 1"
     inkscape:groupmode="layer"
     id="layer1"
     transform="translate(-86.76093,-114.50559)">
    <path
       inkscape:connector-curvature="0"
       d="m 109.64382,114.50559 c -12.66219,0 -22.88289,10.22061 -22.88289,22.88288 v 17.1376 c 0,9.46935 5.7166,17.57235 13.8951,21.05718 a 0.8581086,0.8581086 0 0 0 0.152,0.0637 c 2.7173,1.13462 5.7014,1.76208 8.83579,1.76208 3.1351,0 6.1194,-0.62818 8.837,-1.76319 a 0.8581086,0.8581086 0 0 0 0.1542,-0.0648 c 8.1765,-3.4857 13.8917,-11.58706 13.8917,-21.05496 v -7.26596 a 0.8581086,0.8581086 0 0 0 0,-0.0581 v -9.81353 c 0,-12.66227 -10.2206,-22.88288 -22.8829,-22.88288 z m 0,1.71622 c 2.4021,0 4.7042,0.40039 6.8515,1.1285 -1.1437,1.88912 -1.7576,4.05974 -1.7576,6.28163 0,6.68991 5.4421,12.13083 12.132,12.13083 1.302,0 2.5923,-0.21228 3.8235,-0.62119 0.077,0.73829 0.1173,1.48733 0.1173,2.24689 v 8.91519 c -0.6665,-0.0469 -1.3337,-0.0783 -2.0023,-0.0782 -7.3698,0 -14.0909,2.79435 -19.1644,7.37886 -5.07339,-4.58451 -11.79449,-7.37886 -19.16439,-7.37886 -0.6684,0 -1.3357,0.0314 -2.0023,0.0782 v -8.91519 c 0,-11.74115 9.4256,-21.16666 21.16669,-21.16666 z m 8.485,1.75757 c 6.3119,2.74495 10.9947,8.46675 12.3063,15.42357 -1.1424,0.4168 -2.3463,0.6436 -3.5654,0.6436 -5.7624,0 -10.4158,-4.65217 -10.4158,-10.41461 0,-2.01131 0.5875,-3.97118 1.6749,-5.65256 z m -8.4995,11.79227 a 0.85819438,0.85819438 0 0 0 -0.7911,0.56205 l -1.82679,4.97097 -4.9699,1.82573 a 0.85819438,0.85819438 0 0 0 0,1.61115 l 4.9699,1.82687 1.82679,4.96988 a 0.85819438,0.85819438 0 0 0 1.6112,0 l 1.8258,-4.96988 4.971,-1.82687 a 0.85819438,0.85819438 0 0 0 0,-1.61115 l -4.971,-1.82573 -1.8258,-4.97097 a 0.85819438,0.85819438 0 0 0 -0.8201,-0.56205 z m 0.014,3.34645 1.1576,3.15082 a 0.85819438,0.85819438 0 0 0 0.5094,0.50953 l 3.1509,1.15753 -3.1509,1.1576 a 0.85819438,0.85819438 0 0 0 -0.5094,0.50946 l -1.1576,3.15087 -1.1576,-3.15087 a 0.85819438,0.85819438 0 0 0 -0.5094,-0.50946 l -3.15089,-1.1576 3.15089,-1.15753 a 0.85819438,0.85819438 0 0 0 0.5094,-0.50953 z m -19.16439,14.82357 c 6.8934,0 13.1744,2.59152 17.93079,6.85038 -0.939,0.95586 -1.81269,1.97625 -2.61119,3.05586 -4.047,-3.65654 -9.4078,-5.90172 -15.3196,-5.90172 -0.669,-5e-5 -1.3362,0.04 -2.0023,0.0983 v -4.01902 c 0.6665,-0.0498 1.334,-0.0838 2.0023,-0.0838 z m 38.32879,0 c 0.6685,-5e-5 1.3358,0.0344 2.0023,0.0838 v 4.01902 c -0.6659,-0.0583 -1.3334,-0.0983 -2.0023,-0.0983 -5.8911,0 -11.265,2.23372 -15.323,5.89725 -0.7975,-1.07797 -1.6701,-2.09688 -2.6078,-3.05139 4.7564,-4.25886 11.0374,-6.85038 17.9308,-6.85038 z m -38.32879,5.72074 c 5.559,0 10.5832,2.13281 14.3431,5.60002 -0.7553,1.16085 -1.429,2.37923 -2.0123,3.64812 -3.11,-3.21958 -7.4681,-5.24364 -12.3308,-5.24364 -0.5879,0 -1.1741,0.0417 -1.7587,0.10165 -0.1605,-1.05629 -0.2436,-2.13937 -0.2436,-3.24249 v -0.75759 c 0.6657,-0.0631 1.3334,-0.10612 2.0023,-0.10607 z m 38.32879,0 c 0.669,-5e-5 1.3365,0.0429 2.0023,0.10607 v 0.75759 c 0,1.10312 -0.083,2.1862 -0.2436,3.24249 -0.5845,-0.0602 -1.1706,-0.10165 -1.7587,-0.10165 -4.8382,0 -9.2101,2.01208 -12.3319,5.24023 -0.5833,-1.26844 -1.2571,-2.48642 -2.0124,-3.64696 3.7703,-3.47499 8.806,-5.59777 14.3443,-5.59777 z m -19.1644,2.30614 c 0.9442,0.95943 1.8154,1.99064 2.6078,3.08271 -0.9662,1.01354 -1.8412,2.11365 -2.6101,3.29052 -0.7681,-1.17525 -1.6385,-2.27788 -2.60439,-3.29166 0.79219,-1.09161 1.66279,-2.12256 2.60669,-3.08157 z m -19.16439,3.41458 c 4.6559,0 8.7887,2.04282 11.6068,5.25031 -0.617,1.6143 -1.0903,3.29793 -1.4078,5.03695 -1.8903,-3.72163 -5.7471,-6.28277 -10.199,-6.28277 -0.025,0 -0.05,0 -0.075,0 -0.573,-1.24941 -1.0264,-2.56458 -1.3497,-3.93297 0.4737,-0.0435 0.9487,-0.0738 1.4246,-0.0738 z m 38.32879,0 c 0.4761,0 0.951,0.0296 1.4246,0.0738 -0.3233,1.36838 -0.7768,2.68354 -1.3497,3.93296 -0.025,-1.6e-4 -0.05,0 -0.075,0 -4.4519,0 -8.3087,2.56114 -10.199,6.28274 -0.3173,-1.73847 -0.7899,-3.42196 -1.4067,-5.03584 2.8292,-3.21932 6.9755,-5.25137 11.6057,-5.25137 z m -22.74989,1.11286 c 0.9828,1.0681 1.85459,2.23679 2.60229,3.48827 -0.8626,1.5975 -1.54289,3.30832 -2.00789,5.10511 -0.6154,-1.72638 -1.5023,-3.32769 -2.609,-4.75536 0.5678,-1.33958 1.2462,-2.62038 2.0146,-3.83802 z m 7.17099,0 c 0.7678,1.21669 1.4459,2.49632 2.0134,3.83469 -1.1056,1.42576 -1.9921,3.0281 -2.6078,4.75977 -0.4652,-1.79456 -1.1456,-3.50514 -2.0101,-5.10505 0.7482,-1.25307 1.622,-2.42187 2.6045,-3.48941 z m -21.91639,4.65032 c 4.5241,0.38293 8.1448,3.84357 8.7811,8.28945 -3.6771,-1.85026 -6.7292,-4.73911 -8.7811,-8.28945 z m 36.66179,0 c -2.0518,3.55023 -5.1041,6.43808 -8.7811,8.28836 0.6368,-4.44537 4.2574,-7.90548 8.7811,-8.28836 z m -18.3309,0.68601 c 1.389,2.955 2.1104,6.27658 1.981,9.76659 -0.6524,0.0599 -1.3122,0.0939 -1.981,0.0939 -0.6677,0 -1.3263,-0.0345 -1.9777,-0.0939 -0.01,-0.25656 -0.025,-0.51292 -0.025,-0.7698 0,-3.21879 0.72,-6.26671 2.0023,-8.99679 z m -6.31629,0.40894 c 1.7424,2.60329 2.7098,5.75784 2.5889,9.12193 -1.3789,-0.24241 -2.7099,-0.61608 -3.981,-1.10955 0.059,-2.79779 0.5428,-5.48828 1.3921,-8.01238 z m 12.63369,0.006 c 0.8485,2.52275 1.3322,5.21168 1.3911,8.00785 -1.2705,0.49319 -2.6007,0.86601 -3.9788,1.10837 -0.01,-0.17756 -0.011,-0.35507 -0.011,-0.53292 0,-3.17847 0.9578,-6.12953 2.5989,-8.5833 z"
       style="color:#000000;font-style:normal;font-variant:normal;font-weight:normal;font-stretch:normal;font-size:medium;line-height:normal;font-family:sans-serif;font-variant-ligatures:normal;font-variant-position:normal;font-variant-caps:normal;font-variant-numeric:normal;font-variant-alternates:normal;font-feature-settings:normal;text-indent:0;text-align:start;text-decoration:none;text-decoration-line:none;text-decoration-style:solid;text-decoration-color:#000000;letter-spacing:normal;word-spacing:normal;text-transform:none;writing-mode:lr-tb;direction:ltr;text-orientation:mixed;dominant-baseline:auto;baseline-shift:baseline;text-anchor:start;white-space:normal;shape-padding:0;clip-rule:nonzero;display:inline;overflow:visible;visibility:visible;isolation:auto;mix-blend-mode:normal;color-interpolation:sRGB;color-interpolation-filters:linearRGB;solid-color:#000000;solid-opacity:1;vector-effect:none;fill:url(#linearGradient20076);fill-opacity:1;fill-rule:nonzero;stroke:none;stroke-width:1.03351;stroke-linecap:round;stroke-linejoin:round;stroke-miterlimit:4;stroke-dasharray:none;stroke-dashoffset:0;stroke-opacity:1;color-rendering:auto;image-rendering:auto;shape-rendering:auto;text-rendering:auto;enable-background:accumulate"
       id="path20068" />
  </g>
</svg>
