<?xml version="1.0" encoding="UTF-8" standalone="no"?>
<!-- Created with Inkscape (http://www.inkscape.org/) -->

<svg
   width="57.996902mm"
   height="57.996624mm"
   viewBox="0 0 57.996902 57.996624"
   version="1.1"
   id="svg12467"
   inkscape:version="1.1 (1:1.1+202105261517+ce6663b3b7)"
   sodipodi:docname="9-clover-tech.svg"
   xmlns:inkscape="http://www.inkscape.org/namespaces/inkscape"
   xmlns:sodipodi="http://sodipodi.sourceforge.net/DTD/sodipodi-0.dtd"
   xmlns="http://www.w3.org/2000/svg"
   xmlns:svg="http://www.w3.org/2000/svg">
  <sodipodi:namedview
     id="namedview12469"
     pagecolor="#ffffff"
     bordercolor="#666666"
     borderopacity="1.0"
     inkscape:pageshadow="2"
     inkscape:pageopacity="0.0"
     inkscape:pagecheckerboard="0"
     inkscape:document-units="mm"
     showgrid="false"
     inkscape:zoom="0.75187991"
     inkscape:cx="176.22495"
     inkscape:cy="87.114976"
     inkscape:window-width="1848"
     inkscape:window-height="1016"
     inkscape:window-x="72"
     inkscape:window-y="27"
     inkscape:window-maximized="1"
     inkscape:current-layer="layer1" />
  <defs
     id="defs12464" />
  <g
     inkscape:label="Layer 1"
     inkscape:groupmode="layer"
     id="layer1"
     transform="translate(-58.271702,-125.48395)">
    <path
       inkscape:connector-curvature="0"
       id="path36208"
       d="m 79.40788,125.484 c -0.7922,0 -1.5848,0.3035 -2.1917,0.9106 l -6.0271,6.0274 c -1.214,1.2143 -1.214,3.1692 0,4.3834 l 13.8867,13.887 c 0.3055,0.3052 0.6575,0.5338 1.0326,0.6855 v -8.2197 a 3.3561101,3.3561101 0 0 1 -2.1945,-3.1446 3.3561101,3.3561101 0 0 1 3.3562,-3.3561 3.3561101,3.3561101 0 0 1 3.3559,3.3561 3.3561101,3.3561101 0 0 1 -2.1939,3.1462 v 8.2181 c 0.3755,-0.1515 0.7273,-0.3803 1.0324,-0.6855 l 13.887,-13.887 c 1.2144,-1.2142 1.2144,-3.1691 0,-4.3834 l -6.0274,-6.0274 c -1.214,-1.2142 -3.169,-1.2142 -4.3832,0 l -5.6705,5.6703 -5.6703,-5.6703 c -0.6074,-0.6071 -1.3996,-0.9106 -2.1922,-0.9106 z m -12.0062,12.0063 c -0.7922,0 -1.585,0.3036 -2.1919,0.9107 l -6.027,6.0274 c -1.21421,1.2143 -1.21421,3.1692 0,4.3834 l 5.6703,5.6704 -5.67072,5.6705 c -1.21421,1.2142 -1.21421,3.1691 0,4.3834 l 6.02742,6.0274 c 1.2142,1.2142 3.1691,1.2142 4.3834,0 l 13.8869,-13.8869 c 0.3048,-0.305 0.5333,-0.6567 0.6848,-1.0317 h -8.2197 a 3.3561101,3.3561101 0 0 1 -3.1439,2.1934 3.3561101,3.3561101 0 0 1 -3.3561,-3.3561 3.3561101,3.3561101 0 0 1 3.3561,-3.3562 3.3561101,3.3561101 0 0 1 3.1457,2.1938 h 8.2179 c -0.1497,-0.3752 -0.3794,-0.7268 -0.6844,-1.0319 L 69.59368,138.401 c -0.6074,-0.6071 -1.3996,-0.9107 -2.192,-0.9107 z m 39.7374,0 c -0.7923,0 -1.5849,0.3036 -2.192,0.9107 l -13.8869,13.8869 c -0.3049,0.3051 -0.5333,0.6567 -0.6851,1.0319 h 8.2196 a 3.3561101,3.3561101 0 0 1 3.1441,-2.1938 3.3561101,3.3561101 0 0 1 3.3558,3.3562 3.3561101,3.3561101 0 0 1 -3.3558,3.3561 3.3561101,3.3561101 0 0 1 -3.146,-2.1934 h -8.2174 c 0.1497,0.375 0.3799,0.7267 0.6848,1.0317 l 13.8869,13.8869 c 1.2143,1.2142 3.1694,1.2142 4.3834,0 l 6.0274,-6.0274 c 1.2143,-1.2143 1.2143,-3.1692 0,-4.3834 l -5.6706,-5.6702 5.6706,-5.6707 c 1.2143,-1.2142 1.2143,-3.1691 0,-4.3834 l -6.0274,-6.0274 c -0.6069,-0.6071 -1.399,-0.9107 -2.1914,-0.9107 z m -18.707,20.0963 v 8.2201 a 3.3561101,3.3561101 0 0 1 2.1939,3.1442 3.3561101,3.3561101 0 0 1 -3.3559,3.3561 3.3561101,3.3561101 0 0 1 -3.3562,-3.3561 3.3561101,3.3561101 0 0 1 2.1945,-3.1462 v -8.2177 c -0.3754,0.1515 -0.7275,0.3799 -1.0326,0.6853 l -13.887,13.8868 c -1.2144,1.2142 -1.2144,3.1695 0,4.3837 l 6.0274,6.0272 c 1.2142,1.2141 3.169,1.2141 4.3835,0 l 5.6704,-5.6707 5.6708,5.6707 c 1.2142,1.2141 3.1692,1.2141 4.3832,0 l 6.0274,-6.0272 c 1.2144,-1.2142 1.2144,-3.1695 0,-4.3837 l -13.887,-13.8868 c -0.3051,-0.3054 -0.6569,-0.5338 -1.0324,-0.6857 z"
       style="fill:#677821;fill-opacity:1;stroke:none;stroke-width:0.201754;stroke-linecap:round;stroke-linejoin:round;stroke-miterlimit:4;stroke-dasharray:none;stroke-dashoffset:0;stroke-opacity:1" />
  </g>
</svg>
