<?xml version="1.0" encoding="UTF-8" standalone="no"?>
<!-- Created with Inkscape (http://www.inkscape.org/) -->

<svg
   width="57.573662mm"
   height="57.637257mm"
   viewBox="0 0 57.573662 57.637257"
   version="1.1"
   id="svg12699"
   inkscape:version="1.1 (1:1.1+202105261517+ce6663b3b7)"
   sodipodi:docname="10-vortex-illusion.svg"
   xmlns:inkscape="http://www.inkscape.org/namespaces/inkscape"
   xmlns:sodipodi="http://sodipodi.sourceforge.net/DTD/sodipodi-0.dtd"
   xmlns="http://www.w3.org/2000/svg"
   xmlns:svg="http://www.w3.org/2000/svg">
  <sodipodi:namedview
     id="namedview12701"
     pagecolor="#ffffff"
     bordercolor="#666666"
     borderopacity="1.0"
     inkscape:pageshadow="2"
     inkscape:pageopacity="0.0"
     inkscape:pagecheckerboard="0"
     inkscape:document-units="mm"
     showgrid="false"
     inkscape:zoom="0.75187991"
     inkscape:cx="148.29496"
     inkscape:cy="89.774975"
     inkscape:window-width="1848"
     inkscape:window-height="1016"
     inkscape:window-x="72"
     inkscape:window-y="27"
     inkscape:window-maximized="1"
     inkscape:current-layer="layer1" />
  <defs
     id="defs12696" />
  <g
     inkscape:label="Layer 1"
     inkscape:groupmode="layer"
     id="layer1"
     transform="translate(-65.873118,-124.95981)">
    <g
       id="g40436"
       transform="matrix(1.6958411,0,0,1.6958411,-904.19405,-389.54936)">
      <ellipse
         style="fill:#f8fcfd;fill-opacity:1;stroke:none;stroke-width:0.614956"
         id="path32770"
         cx="589.00214"
         cy="320.3884"
         rx="16.974939"
         ry="16.993698" />
      <path
         inkscape:connector-curvature="0"
         d="m 580.4816,305.66138 a 17.026112,17.026112 0 0 0 -1.44065,0.9314 c 2.10203,3.0227 5.74228,8.2722 7.82828,11.2934 2.68242,3.8853 7.63442,11.0952 8.01028,11.6629 0.0882,0.1348 0.0929,0.147 0.0148,0.2045 -0.0794,0.059 -0.0837,0.056 -0.30009,-0.2262 -2.29314,-2.9941 -6.1314,-7.655 -8.56554,-10.4015 -0.10769,-0.1209 -0.50491,-0.5706 -0.88352,-0.9988 -2.75559,-3.1175 -5.40587,-5.9776 -8.62899,-9.3043 a 17.026112,17.026112 0 0 0 -2.08428,2.7621 c 1.67883,1.2252 3.31387,2.4728 4.84195,3.6966 5.27312,4.2232 9.81509,8.4673 13.80149,12.897 0.50731,0.5639 1.49918,1.7054 1.53387,1.7655 0.008,0.013 -0.0269,0.043 -0.0768,0.064 -0.088,0.037 -0.11512,0.014 -0.73652,-0.6237 -2.63742,-2.7078 -6.24692,-5.7266 -9.6121,-8.039 -3.58529,-2.4636 -7.26421,-4.6112 -11.25966,-6.5619 a 17.026112,17.026112 0 0 0 -0.81455,3.4369 c 4.26585,1.1999 8.19875,2.7547 11.9356,4.714 3.5838,1.8791 7.20304,4.4232 9.95727,6.9995 0.16881,0.1582 0.27319,0.2306 0.30501,0.2122 0.0366,-0.021 0.0465,0.014 0.0416,0.1451 -0.0257,0.6465 0.67927,2.6609 1.92305,5.508 a 17.026112,17.026112 0 0 0 1.23555,-0.6476 17.026112,17.026112 0 0 0 1.67502,-1.1035 c -2.08743,-2.6227 -3.65783,-4.4505 -3.90294,-4.5412 -0.0374,-0.014 -0.0914,0 -0.12806,0.038 -0.0616,0.059 -0.0704,0.051 -0.26141,-0.2346 -0.51597,-0.7711 -2.617,-4.0954 -4.1261,-6.527 -3.06242,-4.9342 -5.1508,-8.4172 -8.63351,-14.3986 l -1.60134,-2.7502 a 17.026112,17.026112 0 0 0 -0.0474,0.027 z m 3.06547,-1.386 c 2.94901,7.6798 6.0983,14.7218 9.40911,21.0363 0.53837,1.0273 2.23448,4.1115 2.26523,4.1197 0.0109,0 0.0591,-0.026 0.1026,-0.07 0.0772,-0.071 0.0761,-0.086 -0.0204,-0.2699 -0.32917,-0.627 -0.96729,-1.954 -1.39888,-2.908 -3.01757,-6.6714 -5.50606,-14.3835 -7.30935,-22.6339 a 17.026112,17.026112 0 0 0 -3.04861,0.7251 z m 6.14656,-0.8807 c 0.0825,1.2307 0.18341,2.4294 0.30046,3.5451 0.4092,3.9005 1.13083,8.1432 1.94191,11.4163 0.83576,3.3731 1.68203,6.0654 2.76132,8.7851 0.36685,0.9244 0.8305,1.9892 0.85905,1.9727 0.0952,-0.055 0.1411,-0.1731 0.10052,-0.259 -0.18394,-0.3886 -0.82005,-2.2814 -1.13554,-3.3765 -0.85455,-2.9661 -1.48127,-6.3013 -1.76755,-9.4051 -0.37658,-4.0836 -0.39833,-8.0718 -0.0503,-12.2841 a 17.026112,17.026112 0 0 0 -3.00987,-0.3945 z m 5.97813,1.3496 c -0.57219,2.3573 -0.99558,4.6851 -1.24363,6.8695 -0.25071,2.2077 -0.38938,4.8887 -0.34065,6.5875 0.10637,3.7084 0.66913,7.2669 1.62166,10.2536 l 0.10343,0.3236 0.12065,-0.093 c 0.0757,-0.059 0.20463,-0.1101 0.34599,-0.14 0.41828,-0.087 1.11342,0.163 2.15128,0.7731 0.83888,0.493 2.09349,1.3492 3.37976,2.2972 a 17.026112,17.026112 0 0 0 2.06486,-2.9351 c -2.74013,-1.1126 -4.79031,-1.6477 -6.01321,-1.559 l -0.40466,0.029 -0.44931,0.2594 c -0.3547,0.2048 -0.47287,0.2891 -0.55991,0.4024 l -0.11063,0.1429 0.004,-0.17 c 0.0196,-0.8809 0.0741,-1.3007 0.26218,-2.0208 0.15727,-0.6023 0.45363,-1.3361 0.75282,-1.8638 0.10887,-0.1921 0.26003,-0.4696 0.33597,-0.6169 0.816,-1.5828 2.80487,-3.1041 5.8893,-4.5051 0.70186,-0.3189 1.45021,-0.6162 2.25166,-0.8952 a 17.026112,17.026112 0 0 0 -0.91892,-3.5162 c -1.56409,0.9856 -3.18839,2.2465 -4.30993,3.3598 -1.48445,1.4736 -2.85126,3.4056 -3.44057,4.8635 -0.72482,1.793 -0.99639,3.2912 -0.90884,5.0139 0.013,0.2534 0.006,0.4827 -0.0159,0.5094 -0.0513,0.063 -0.048,0.074 -0.0915,-0.303 -0.24522,-2.1066 -0.084,-4.0639 0.51651,-6.2717 0.74989,-2.7572 2.53252,-5.8709 4.91916,-8.5923 0.44353,-0.5058 1.14584,-1.2447 1.69963,-1.8016 a 17.026112,17.026112 0 0 0 -2.22141,-2.7521 c -1.79993,2.6884 -3.15325,5.3837 -4.09207,8.1484 -0.28104,0.828 -0.76573,2.5752 -0.87046,3.1385 -0.54898,2.9524 -0.59856,5.5877 -0.15195,8.0762 0.10086,0.5627 0.10957,0.8569 0.0246,0.834 -0.0329,-0.01 -0.22471,-0.7818 -0.38044,-1.5382 -0.45845,-2.226 -0.62199,-4.5832 -0.50327,-7.2529 0.0487,-1.0953 0.11351,-1.7196 0.31581,-3.0414 0.54925,-3.5885 1.53413,-6.997 3.04676,-10.5117 a 17.026112,17.026112 0 0 0 -2.77792,-1.5027 z m -23.64455,17.074 a 17.026112,17.026112 0 0 0 0.67006,3.5161 c 1.39811,-0.138 2.77775,-0.2117 3.99719,-0.2073 5.95755,0.021 11.11502,1.3668 15.40928,4.02 0.52451,0.3242 1.5747,1.0414 1.72345,1.1772 0.0484,0.044 0.092,0.046 0.16306,0 l 0.0967,-0.056 -0.24474,-0.2026 c -2.1173,-1.7541 -4.31524,-3.1401 -7.00801,-4.4196 -1.73265,-0.8232 -3.15161,-1.3633 -5.32795,-2.0276 -2.95626,-0.9025 -6.1351,-1.5071 -9.47909,-1.8049 z m 2.08278,6.8546 a 17.026112,17.026112 0 0 0 0.13562,0.2488 17.026112,17.026112 0 0 0 1.94048,2.7088 c 1.1751,-0.6574 1.7444,-0.9163 2.89007,-1.3698 3.68147,-1.4573 7.1746,-1.9 10.26131,-1.3006 1.32091,0.2566 2.94452,0.8534 3.99727,1.4695 0.12597,0.074 0.18164,0.084 0.24982,0.044 l 0.0878,-0.051 -0.43215,-0.2719 c -2.01136,-1.2653 -4.37853,-2.1259 -7.16573,-2.6051 -0.76364,-0.1314 -2.05481,-0.2213 -3.21114,-0.2238 -2.85594,-0.01 -5.67143,0.4248 -8.75732,1.3527 z m 7.86484,3.0486 c -1.07926,0.6312 -2.16397,1.3845 -3.24421,2.2693 a 17.026112,17.026112 0 0 0 2.74817,1.693 c 1.71508,-2.0759 3.3719,-3.5043 5.17933,-4.4823 0.99247,-0.5368 1.71291,-0.8076 2.5954,-0.9749 1.17912,-0.2234 2.58188,-0.1187 3.60005,0.2689 0.22633,0.086 0.43096,0.147 0.45458,0.1351 0.0228,-0.013 0.0365,-0.033 0.0281,-0.047 -0.0406,-0.07 -1.0477,-0.4554 -1.61636,-0.6183 -2.27574,-0.6518 -4.58444,-0.492 -7.13336,0.4935 -0.86905,0.336 -1.74013,0.7573 -2.61188,1.2629 z m 17.25935,-8.3511 c -0.64579,0.3647 -1.12815,0.7776 -1.43274,1.2254 -0.0924,0.1359 -0.26506,0.3731 -0.38362,0.5272 -0.51644,0.6714 -0.87207,1.4956 -0.98711,2.2874 l -0.0312,0.215 0.10573,-0.2782 c 0.1329,-0.3495 0.43457,-0.7854 0.74355,-1.0743 0.13134,-0.1221 0.31504,-0.2975 0.40873,-0.3888 0.78095,-0.761 2.72214,-1.0661 5.51326,-0.8666 0.69916,0.05 1.40652,0.1242 2.14807,0.2271 a 17.026112,17.026112 0 0 0 0.6582,-3.619 c -0.13147,0.012 -0.25069,0.023 -0.35104,0.034 -2.77784,0.3087 -4.97391,0.9033 -6.39181,1.7104 z m -10.04882,7.7915 c -0.49506,0.294 -1.00057,0.6751 -1.53014,1.1627 -1.15075,1.0597 -2.22869,2.5273 -3.2698,4.4721 a 17.026112,17.026112 0 0 0 2.92259,0.552 c 0.81738,-2.7741 1.81258,-4.6704 3.06435,-5.865 0.16658,-0.1593 0.34708,-0.2869 0.66448,-0.4702 0.50511,-0.2916 0.86312,-0.4101 1.32836,-0.4385 h -2e-5 c 0.15938,-0.01 0.2721,-0.027 0.25066,-0.039 -0.10758,-0.058 -0.85695,-0.1054 -1.23494,-0.078 -0.75726,0.054 -1.46923,0.2791 -2.19559,0.7038 z m 3.28211,-0.361 c -1.10504,0.6461 -1.87558,2.871 -2.14281,6.2654 -0.007,0.094 -0.0146,0.2017 -0.022,0.3158 a 17.026112,17.026112 0 0 0 2.96217,-0.4938 c -0.44003,-2.6858 -0.51181,-4.3735 -0.24747,-5.4865 0.0545,-0.2297 0.1361,-0.4775 0.18135,-0.5507 0.0452,-0.073 0.0771,-0.1418 0.0709,-0.1525 -0.0306,-0.053 -0.31194,-0.082 -0.44807,-0.046 -0.1215,0.032 -0.23956,0.082 -0.35423,0.148 z"
         style="opacity:1;fill:#004455;stroke-width:1.32292;stroke-linecap:round;stroke-linejoin:round"
         id="path32728" />
    </g>
  </g>
</svg>
