<?xml version="1.0" encoding="UTF-8" standalone="no"?>
<!-- Created with Inkscape (http://www.inkscape.org/) -->

<svg
   width="50.67226mm"
   height="58.194904mm"
   viewBox="0 0 50.67226 58.194904"
   version="1.1"
   id="svg13201"
   inkscape:version="1.1 (1:1.1+202105261517+ce6663b3b7)"
   sodipodi:docname="12-gladiator-sparta-head.svg"
   xmlns:inkscape="http://www.inkscape.org/namespaces/inkscape"
   xmlns:sodipodi="http://sodipodi.sourceforge.net/DTD/sodipodi-0.dtd"
   xmlns="http://www.w3.org/2000/svg"
   xmlns:svg="http://www.w3.org/2000/svg">
  <sodipodi:namedview
     id="namedview13203"
     pagecolor="#ffffff"
     bordercolor="#666666"
     borderopacity="1.0"
     inkscape:pageshadow="2"
     inkscape:pageopacity="0.0"
     inkscape:pagecheckerboard="0"
     inkscape:document-units="mm"
     showgrid="false"
     inkscape:zoom="0.75187991"
     inkscape:cx="52.534985"
     inkscape:cy="152.28496"
     inkscape:window-width="1848"
     inkscape:window-height="1016"
     inkscape:window-x="72"
     inkscape:window-y="27"
     inkscape:window-maximized="1"
     inkscape:current-layer="layer1" />
  <defs
     id="defs13198" />
  <g
     inkscape:label="Layer 1"
     inkscape:groupmode="layer"
     id="layer1"
     transform="translate(-91.283863,-108.31647)">
    <g
       id="g32091"
       style="stroke-width:0.759077"
       transform="matrix(1.7025583,0,0,1.7025583,-1591.5322,-2603.0528)">
      <path
         style="opacity:1;fill:#9c0124;fill-opacity:1;stroke-width:2.86895"
         d="m 3802.4395,6018.998 0.014,0.01 c -2.3781,0.4339 -9.2867,13.7679 -8.6679,13.5781 -0.6025,0.6921 1.8654,-11.755 2.0566,-13.2558 -3.5153,0.3401 -6.9516,0.9635 -10.2852,1.834 -1.6327,0.4218 -7.1796,10.207 -7.1796,10.207 -0.3742,0.593 -1.4054,-5.9837 -1.5528,-7.2676 -7.0068,2.9155 -13.4099,6.9918 -18.9707,11.9883 -0.4743,0.4335 -0.2754,6.1562 -0.2754,6.1562 -0.2759,0.4048 -2.3802,-3.5314 -2.6289,-3.3867 -1.8682,1.8921 -3.6238,3.8932 -5.2558,5.9961 -0.8542,1.1025 -0.1914,13.5625 -0.1914,13.5625 -0.3515,0.4335 -4.1342,-7.4534 -4.4649,-6.7285 -5.9301,9.9723 -9.3359,21.62 -9.3359,34.0645 0,14.1819 4.5727,27.9862 12.9746,39.4121 0.1285,0.2154 0.2503,0.4325 0.375,0.6464 0.5204,0.6293 1.1286,1.5303 1.7246,2.1993 -0.9672,-8.5735 -2.5601,-17.3098 -2.6152,-25.8262 0,-6.8924 1.3367,-13.4863 3.7617,-19.5332 0.2267,-0.5666 -5.2715,-10.9375 -5.2715,-10.9375 0,0 6.6423,7.8054 6.9961,7.0937 3.1986,-6.4233 7.6735,-12.1091 13.1035,-16.7148 0.5934,-0.5031 -0.7012,-17.209 -0.7012,-17.209 0,0 3.5531,14.9504 4.0879,14.5664 1.1429,-0.8182 2.3202,-1.5947 3.5293,-2.3222 0.3515,-0.2079 -0.3047,-8.0606 -0.3047,-8.0606 0,0 2.0529,7.0526 2.4063,6.8613 6.1871,-3.343 13.1312,-5.4845 20.5293,-6.1074 0.5552,-0.087 1.6777,-0.1133 1.6777,-0.1133 11.5688,-13.4808 23.637,-20.1252 35.9942,-22.9062 -10.0011,-5.822 -22.6966,-7.4671 -31.5293,-7.8028 z"
         transform="scale(0.26458333)"
         id="path32085"
         inkscape:connector-curvature="0" />
      <path
         style="opacity:1;fill:#87795c;fill-opacity:1;stroke-width:2.86895"
         d="m 3825.5684,6062.8008 -18.6504,7.1972 c 0,0 4.2333,-4.4664 3.4218,-4.5722 -15.7167,-1.1694 -26.3877,3.2645 -35.6562,11.084 -3.9878,3.7708 -6.4778,7.9738 -8.1465,13.7539 -1.6222,5.6232 -1.067,17.9633 1.2227,27.1425 0.9286,3.7236 1.8978,8.2897 2.1699,10.1465 l 0.4824,3.377 1.0703,-2.0235 c 1.9155,-3.6214 2.8535,-9.3131 2.8535,-17.5917 0.038,-19.3626 4.1018,-27.434 16.795,-33.3516 24.1485,-7.1407 33.0836,8.0805 42.1953,27.2578 0,-0.6625 -0.1934,-16.0078 -0.1934,-16.0078 -3.6964,-9.2946 -5.7779,-8.3705 -7.5644,-26.4121 z m -27.543,25.9219 c -1.1886,0.011 -2.3129,0.057 -3.3438,0.1328 l 6.627,2.6152 c 2.4204,5.4928 3.3364,10.0767 9.0605,10.0801 0.2639,0.02 4.9996,8.0488 5.2793,8.0488 0.3772,0.023 -3.1177,-7.9316 -2.7148,-7.9316 1.8179,-0.1852 4.3965,0 4.3965,0 6.2385,11.1802 9.0488,18.8409 13.9883,32.2129 -10.4421,-4.2974 -18.5632,-6.8019 -35.9649,-7.3008 l -2.7461,-18.916 c -2.1426,8.5901 -3.8634,18.3449 -8.0605,27.7363 31.6006,0.1893 51.9324,8.9327 63.6426,12.7851 -7.0247,-12.1118 -19.0362,-42.8964 -26.0918,-54.0781 -4.3019,-3.9176 -15.7524,-5.4618 -24.0723,-5.3808 z"
         transform="scale(0.26458333)"
         id="path32087"
         inkscape:connector-curvature="0" />
      <path
         style="opacity:1;fill:#000000;stroke-width:2.86895"
         d="m 3739.625,6099.0918 c -0.1285,0.1285 -0.2078,0.2756 -0.2305,0.4336 0,-0.1625 0.1096,-0.3059 0.2305,-0.4336 z"
         transform="scale(0.26458333)"
         id="path32089"
         inkscape:connector-curvature="0" />
    </g>
  </g>
</svg>
