<?xml version="1.0" encoding="UTF-8" standalone="no"?>
<!-- Created with Inkscape (http://www.inkscape.org/) -->

<svg
   width="62.861271mm"
   height="51.453968mm"
   viewBox="0 0 62.861271 51.453968"
   version="1.1"
   id="svg6423"
   inkscape:version="1.1 (1:1.1+202105261517+ce6663b3b7)"
   sodipodi:docname="17-witch-hat.svg"
   xmlns:inkscape="http://www.inkscape.org/namespaces/inkscape"
   xmlns:sodipodi="http://sodipodi.sourceforge.net/DTD/sodipodi-0.dtd"
   xmlns="http://www.w3.org/2000/svg"
   xmlns:svg="http://www.w3.org/2000/svg">
  <sodipodi:namedview
     id="namedview6425"
     pagecolor="#ffffff"
     bordercolor="#666666"
     borderopacity="1.0"
     inkscape:pageshadow="2"
     inkscape:pageopacity="0.0"
     inkscape:pagecheckerboard="0"
     inkscape:document-units="mm"
     showgrid="false"
     inkscape:zoom="0.75187991"
     inkscape:cx="71.15498"
     inkscape:cy="100.41497"
     inkscape:window-width="1848"
     inkscape:window-height="1016"
     inkscape:window-x="72"
     inkscape:window-y="27"
     inkscape:window-maximized="1"
     inkscape:current-layer="layer1" />
  <defs
     id="defs6420" />
  <g
     inkscape:label="Layer 1"
     inkscape:groupmode="layer"
     id="layer1"
     transform="translate(-86.102567,-122.06913)">
    <g
       id="g81321"
       style="stroke-width:0.756076"
       transform="matrix(1.7828256,0,0,1.7828256,-3233.3559,-2269.1687)">
      <path
         inkscape:connector-curvature="0"
         style="color:#000000;font-style:normal;font-variant:normal;font-weight:normal;font-stretch:normal;font-size:medium;line-height:normal;font-family:sans-serif;font-variant-ligatures:normal;font-variant-position:normal;font-variant-caps:normal;font-variant-numeric:normal;font-variant-alternates:normal;font-feature-settings:normal;text-indent:0;text-align:start;text-decoration:none;text-decoration-line:none;text-decoration-style:solid;text-decoration-color:#000000;letter-spacing:normal;word-spacing:normal;text-transform:none;writing-mode:lr-tb;direction:ltr;text-orientation:mixed;dominant-baseline:auto;baseline-shift:baseline;text-anchor:start;white-space:normal;shape-padding:0;clip-rule:nonzero;display:inline;overflow:visible;visibility:visible;opacity:1;isolation:auto;mix-blend-mode:normal;color-interpolation:sRGB;color-interpolation-filters:linearRGB;solid-color:#000000;solid-opacity:1;vector-effect:none;fill:#000000;fill-opacity:1;fill-rule:nonzero;stroke:none;stroke-width:1.00023;stroke-linecap:round;stroke-linejoin:round;stroke-miterlimit:4;stroke-dasharray:none;stroke-dashoffset:0;stroke-opacity:1;color-rendering:auto;image-rendering:auto;shape-rendering:auto;text-rendering:auto;enable-background:accumulate"
         d="m 1881.9434,1341.2649 c -0.2329,0 -0.4567,0.035 -0.675,0.099 -0.9979,0.2926 -1.6636,1.1176 -2.5378,2.1458 a 0.51666696,0.51666696 0 0 0 -0.028,0.036 c -3.55,5.0163 -5.571,9.0034 -6.7649,12.2839 -0.2566,0.7053 -0.4692,1.4016 -0.7661,1.7192 -0.6407,0.6852 -1.4896,1.1256 -2.4611,1.8711 -2.669,2.0481 -5.2602,4.6154 -6.7177,6.8914 a 0.51666696,0.51666696 0 0 0 -0.01,0.5492 c 0.511,0.8312 1.4945,1.3828 2.7723,1.8285 1.2777,0.4456 2.8762,0.7693 4.6841,0.9986 3.6156,0.4587 8.0655,0.5335 12.3276,0.3275 4.2621,-0.2061 8.3276,-0.6911 11.189,-1.375 1.4307,-0.3419 2.5542,-0.7201 3.3061,-1.1998 0.3759,-0.2399 0.6804,-0.5092 0.8329,-0.893 0.1524,-0.3838 0.058,-0.8586 -0.2003,-1.196 -1.1578,-1.5062 -2.5683,-3.0192 -3.8661,-4.2641 -1.2977,-1.2448 -2.4554,-2.2095 -3.22,-2.6613 -0.903,-0.5336 -1.3805,-0.7758 -1.489,-0.8665 -0.054,-0.045 -0.023,0 -0.033,-0.04 -0.01,-0.038 -0.021,-0.1775 -0.028,-0.4123 a 0.51666696,0.51666696 0 0 0 0,-0.01 c -0.1208,-3.134 -0.2883,-4.4661 -0.3482,-5.972 1.1067,0.3327 2.2664,0.7687 3.5075,0.8887 a 0.51666696,0.51666696 0 0 0 0.01,0 c 0.4239,0.039 0.7879,0.018 1.0973,-0.2237 0.3093,-0.242 0.3767,-0.6708 0.3203,-0.9824 -0.1126,-0.6212 -0.5123,-1.2098 -0.9533,-1.8799 v 0 c -1.5756,-2.4658 -4.3455,-5.144 -6.9732,-6.5355 -1.1567,-0.726 -2.0694,-1.107 -2.8703,-1.1294 v 0 c -0.034,0 -0.067,0 -0.1005,0 z"
         id="path81311" />
      <path
         inkscape:connector-curvature="0"
         id="path81313"
         d="m 1882.0481,1342.2989 c -0.1092,0 -0.4259,0.032 -0.7401,0.1804 0,0 0.01,-0.01 0.01,-0.014 -0.024,0.012 -0.048,0.029 -0.072,0.042 -0.01,0 -0.015,0.01 -0.023,0.01 0,0 0,0 0,0 -0.4735,0.2782 -0.9879,0.8361 -1.6785,1.6475 -3.1795,4.4956 -5.0942,8.1226 -6.2854,11.1316 0.4606,-0.041 1.7179,-0.1281 2.2211,-0.1633 1.4691,-0.086 2.9347,-0.131 4.4194,-0.1215 2.3418,0.013 4.7317,0.1498 7.2589,0.4331 -0.123,-2.1845 -0.2688,-3.4234 -0.3038,-4.7977 0,-0.027 -0.012,-0.054 -0.012,-0.082 -0.067,-0.8222 -0.1793,-1.4588 -0.386,-2.5084 -0.067,-0.3193 0.1744,-0.6232 0.5007,-0.6232 0.2513,0 0.4681,0.176 0.5131,0.4232 0.1697,0.8611 0.2821,1.4815 0.3561,2.1529 1.3041,0.3525 2.5502,0.8711 3.7026,0.9828 0.2459,0.019 0.2867,-0.01 0.2987,-0.01 -0.045,-0.2301 -0.3697,-0.8406 -0.7958,-1.4883 l -0.01,-0.01 c -1.4597,-2.2855 -4.1902,-4.914 -6.5939,-6.1847 -0.012,-0.01 -0.023,-0.01 -0.034,-0.02 -0.2896,-0.1826 -0.5436,-0.3261 -0.7834,-0.4532 0,0 0,0 0,0 -0.074,-0.045 -0.1777,-0.095 -0.2899,-0.1457 -0.01,0 -0.022,-0.012 -0.032,-0.016 0,0 0,0 0,0 -0.2906,-0.1288 -0.6244,-0.2527 -0.6594,-0.2625 -0.3006,-0.082 -0.4068,-0.096 -0.5783,-0.1064 z"
         style="color:#000000;font-style:normal;font-variant:normal;font-weight:normal;font-stretch:normal;font-size:medium;line-height:normal;font-family:sans-serif;font-variant-ligatures:normal;font-variant-position:normal;font-variant-caps:normal;font-variant-numeric:normal;font-variant-alternates:normal;font-feature-settings:normal;text-indent:0;text-align:start;text-decoration:none;text-decoration-line:none;text-decoration-style:solid;text-decoration-color:#000000;letter-spacing:normal;word-spacing:normal;text-transform:none;writing-mode:lr-tb;direction:ltr;text-orientation:mixed;dominant-baseline:auto;baseline-shift:baseline;text-anchor:start;white-space:normal;shape-padding:0;clip-rule:nonzero;display:inline;overflow:visible;visibility:visible;opacity:1;isolation:auto;mix-blend-mode:normal;color-interpolation:sRGB;color-interpolation-filters:linearRGB;solid-color:#000000;solid-opacity:1;vector-effect:none;fill:#aad400;fill-opacity:1;fill-rule:nonzero;stroke:none;stroke-width:1.00023;stroke-linecap:round;stroke-linejoin:round;stroke-miterlimit:4;stroke-dasharray:none;stroke-dashoffset:0;stroke-opacity:1;color-rendering:auto;image-rendering:auto;shape-rendering:auto;text-rendering:auto;enable-background:accumulate" />
      <path
         inkscape:connector-curvature="0"
         style="color:#000000;font-style:normal;font-variant:normal;font-weight:normal;font-stretch:normal;font-size:medium;line-height:normal;font-family:sans-serif;font-variant-ligatures:normal;font-variant-position:normal;font-variant-caps:normal;font-variant-numeric:normal;font-variant-alternates:normal;font-feature-settings:normal;text-indent:0;text-align:start;text-decoration:none;text-decoration-line:none;text-decoration-style:solid;text-decoration-color:#000000;letter-spacing:normal;word-spacing:normal;text-transform:none;writing-mode:lr-tb;direction:ltr;text-orientation:mixed;dominant-baseline:auto;baseline-shift:baseline;text-anchor:start;white-space:normal;shape-padding:0;clip-rule:nonzero;display:inline;overflow:visible;visibility:visible;opacity:1;isolation:auto;mix-blend-mode:normal;color-interpolation:sRGB;color-interpolation-filters:linearRGB;solid-color:#000000;solid-opacity:1;vector-effect:none;fill:#006680;fill-opacity:1;fill-rule:nonzero;stroke:none;stroke-width:1.00023;stroke-linecap:round;stroke-linejoin:round;stroke-miterlimit:4;stroke-dasharray:none;stroke-dashoffset:0;stroke-opacity:1;color-rendering:auto;image-rendering:auto;shape-rendering:auto;text-rendering:auto;enable-background:accumulate"
         d="m 1879.8867,1355.5597 c 2.3508,0.013 4.7502,0.1524 7.2929,0.4407 0.017,0.3557 0.035,0.7333 0.051,1.1411 v -0.01 c 0.01,0.2362 0,0.4196 0.058,0.6338 0.053,0.2141 0.2012,0.439 0.3723,0.582 0.1586,0.1326 0.3341,0.2393 0.561,0.3659 -0.5236,-0.1065 -1.0925,-0.1988 -1.699,-0.2789 -1.758,-0.2323 -3.8154,-0.3558 -5.8856,-0.3921 -3.3561,-0.059 -6.729,0.1064 -8.9292,0.4273 0.074,-0.071 0.1464,-0.1431 0.218,-0.2196 0.5744,-0.6143 0.7508,-1.4357 0.9822,-2.0716 0.038,-0.1041 0.079,-0.2109 0.1187,-0.3165 2.2998,-0.2094 4.5569,-0.3195 6.8597,-0.307 z"
         id="path81315" />
      <path
         inkscape:connector-curvature="0"
         style="color:#000000;font-style:normal;font-variant:normal;font-weight:normal;font-stretch:normal;font-size:medium;line-height:normal;font-family:sans-serif;font-variant-ligatures:normal;font-variant-position:normal;font-variant-caps:normal;font-variant-numeric:normal;font-variant-alternates:normal;font-feature-settings:normal;text-indent:0;text-align:start;text-decoration:none;text-decoration-line:none;text-decoration-style:solid;text-decoration-color:#000000;letter-spacing:normal;word-spacing:normal;text-transform:none;writing-mode:lr-tb;direction:ltr;text-orientation:mixed;dominant-baseline:auto;baseline-shift:baseline;text-anchor:start;white-space:normal;shape-padding:0;clip-rule:nonzero;display:inline;overflow:visible;visibility:visible;opacity:1;isolation:auto;mix-blend-mode:normal;color-interpolation:sRGB;color-interpolation-filters:linearRGB;solid-color:#000000;solid-opacity:1;vector-effect:none;fill:#aad400;fill-opacity:1;fill-rule:nonzero;stroke:none;stroke-width:1.00023;stroke-linecap:round;stroke-linejoin:round;stroke-miterlimit:4;stroke-dasharray:none;stroke-dashoffset:0;stroke-opacity:1;color-rendering:auto;image-rendering:auto;shape-rendering:auto;text-rendering:auto;enable-background:accumulate"
         d="m 1879.0877,1358.5876 c 0.5114,0 1.0264,0 1.54,0.011 2.0547,0.036 4.0955,0.1588 5.8231,0.3871 1.4698,0.1942 2.7164,0.4729 3.5307,0.8147 0.6259,0.4769 1.4566,1.1896 2.3356,2.0327 1.2087,1.1594 2.5234,2.5657 3.6098,3.9524 -3.2141,-0.5712 -7.5859,-0.8332 -12.172,-0.8593 -7.8261,-0.044 -16.2655,0.5961 -20.6036,1.5491 1.395,-2.0208 3.7509,-4.3654 6.1876,-6.2352 0.5035,-0.3864 1.0126,-0.7022 1.5039,-1.0561 1.7066,-0.3507 4.9003,-0.5844 8.2449,-0.596 z"
         id="path81317" />
      <path
         inkscape:connector-curvature="0"
         style="color:#000000;font-style:normal;font-variant:normal;font-weight:normal;font-stretch:normal;font-size:medium;line-height:normal;font-family:sans-serif;font-variant-ligatures:normal;font-variant-position:normal;font-variant-caps:normal;font-variant-numeric:normal;font-variant-alternates:normal;font-feature-settings:normal;text-indent:0;text-align:start;text-decoration:none;text-decoration-line:none;text-decoration-style:solid;text-decoration-color:#000000;letter-spacing:normal;word-spacing:normal;text-transform:none;writing-mode:lr-tb;direction:ltr;text-orientation:mixed;dominant-baseline:auto;baseline-shift:baseline;text-anchor:start;white-space:normal;shape-padding:0;clip-rule:nonzero;display:inline;overflow:visible;visibility:visible;opacity:1;isolation:auto;mix-blend-mode:normal;color-interpolation:sRGB;color-interpolation-filters:linearRGB;solid-color:#000000;solid-opacity:1;vector-effect:none;fill:#80a000;fill-opacity:1;fill-rule:nonzero;stroke:none;stroke-width:1.00023;stroke-linecap:round;stroke-linejoin:round;stroke-miterlimit:4;stroke-dasharray:none;stroke-dashoffset:0;stroke-opacity:1;color-rendering:auto;image-rendering:auto;shape-rendering:auto;text-rendering:auto;enable-background:accumulate"
         d="m 1882.5511,1365.9865 c 4.8268,-0.02 9.497,0.2028 12.8504,0.7563 -0.5968,0.302 -1.5284,0.6166 -2.6816,0.8922 -2.7527,0.6579 -6.7834,1.1448 -10.9985,1.3486 -4.2151,0.2038 -8.6236,0.1268 -12.1475,-0.3203 -1.7622,-0.2236 -3.304,-0.5413 -4.4742,-0.9494 -0.3517,-0.1227 -0.6572,-0.2549 -0.9228,-0.3924 4.1288,-0.7732 11.4132,-1.3064 18.3742,-1.335 z"
         id="path81319" />
    </g>
  </g>
</svg>
