<?xml version="1.0" encoding="UTF-8" standalone="no"?>
<!-- Created with Inkscape (http://www.inkscape.org/) -->

<svg
   width="56.981907mm"
   height="58.280464mm"
   viewBox="0 0 56.981907 58.280464"
   version="1.1"
   id="svg7311"
   inkscape:version="1.1 (1:1.1+202105261517+ce6663b3b7)"
   sodipodi:docname="20-geometric-stacked-shapes.svg"
   xmlns:inkscape="http://www.inkscape.org/namespaces/inkscape"
   xmlns:sodipodi="http://sodipodi.sourceforge.net/DTD/sodipodi-0.dtd"
   xmlns:xlink="http://www.w3.org/1999/xlink"
   xmlns="http://www.w3.org/2000/svg"
   xmlns:svg="http://www.w3.org/2000/svg">
  <sodipodi:namedview
     id="namedview7313"
     pagecolor="#ffffff"
     bordercolor="#666666"
     borderopacity="1.0"
     inkscape:pageshadow="2"
     inkscape:pageopacity="0.0"
     inkscape:pagecheckerboard="0"
     inkscape:document-units="mm"
     showgrid="false"
     inkscape:zoom="0.75187991"
     inkscape:cx="287.94492"
     inkscape:cy="56.524984"
     inkscape:window-width="1848"
     inkscape:window-height="1016"
     inkscape:window-x="72"
     inkscape:window-y="27"
     inkscape:window-maximized="1"
     inkscape:current-layer="layer1" />
  <defs
     id="defs7308">
    <linearGradient
       inkscape:collect="always"
       xlink:href="#linearGradient105937"
       id="linearGradient105629"
       gradientUnits="userSpaceOnUse"
       x1="8566.1953"
       y1="961.96295"
       x2="8624.3203"
       y2="961.96295" />
    <linearGradient
       id="linearGradient105937"
       inkscape:collect="always">
      <stop
         id="stop105933"
         offset="0"
         style="stop-color:#4400aa;stop-opacity:1" />
      <stop
         id="stop105935"
         offset="1"
         style="stop-color:#b380ff;stop-opacity:1" />
    </linearGradient>
    <linearGradient
       inkscape:collect="always"
       xlink:href="#linearGradient105739"
       id="linearGradient105631"
       gradientUnits="userSpaceOnUse"
       x1="8566.1953"
       y1="951.01361"
       x2="8624.3359"
       y2="951.01361" />
    <linearGradient
       id="linearGradient105739"
       inkscape:collect="always">
      <stop
         id="stop105735"
         offset="0"
         style="stop-color:#5500d4;stop-opacity:1" />
      <stop
         id="stop105737"
         offset="1"
         style="stop-color:#ccaaff;stop-opacity:1" />
    </linearGradient>
    <linearGradient
       inkscape:collect="always"
       xlink:href="#linearGradient105937"
       id="linearGradient7448"
       gradientUnits="userSpaceOnUse"
       x1="8566.1953"
       y1="961.96295"
       x2="8624.3203"
       y2="961.96295" />
    <linearGradient
       inkscape:collect="always"
       xlink:href="#linearGradient105739"
       id="linearGradient7450"
       gradientUnits="userSpaceOnUse"
       x1="8566.1953"
       y1="951.01361"
       x2="8624.3359"
       y2="951.01361" />
  </defs>
  <g
     inkscape:label="Layer 1"
     inkscape:groupmode="layer"
     id="layer1"
     transform="translate(-28.868087,-133.78749)">
    <g
       id="g106227"
       transform="matrix(1.6767522,0,0,1.6767522,923.87021,318.82666)">
      <g
         id="g105621"
         transform="matrix(2.2096229,0,0,2.2096229,-5541.8206,-645.79665)">
        <path
           style="color:#000000;font-style:normal;font-variant:normal;font-weight:normal;font-stretch:normal;font-size:medium;line-height:normal;font-family:sans-serif;font-variant-ligatures:normal;font-variant-position:normal;font-variant-caps:normal;font-variant-numeric:normal;font-variant-alternates:normal;font-feature-settings:normal;text-indent:0;text-align:start;text-decoration:none;text-decoration-line:none;text-decoration-style:solid;text-decoration-color:#000000;letter-spacing:normal;word-spacing:normal;text-transform:none;writing-mode:lr-tb;direction:ltr;text-orientation:mixed;dominant-baseline:auto;baseline-shift:baseline;text-anchor:start;white-space:normal;shape-padding:0;clip-rule:nonzero;display:inline;overflow:visible;visibility:visible;opacity:1;isolation:auto;mix-blend-mode:normal;color-interpolation:sRGB;color-interpolation-filters:linearRGB;solid-color:#000000;solid-opacity:1;vector-effect:none;fill:url(#linearGradient7448);fill-opacity:1;fill-rule:nonzero;stroke:none;stroke-width:4;stroke-linecap:round;stroke-linejoin:round;stroke-miterlimit:4;stroke-dasharray:none;stroke-dashoffset:0;stroke-opacity:1;color-rendering:auto;image-rendering:auto;shape-rendering:auto;text-rendering:auto;enable-background:accumulate"
           d="m 8568.166,948.60938 a 2.0002001,2.0002001 0 0 0 -1.9707,2.03124 v 13.4629 a 2.0002001,2.0002001 0 0 0 0.9902,1.72851 l 15.7676,9.21289 a 2.0002001,2.0002001 0 0 0 2,0.008 l 10.0176,-5.75195 9.3301,5.41797 a 2.0002001,2.0002001 0 0 0 1.9277,0.0449 l 17.0215,-8.92383 a 2.0002001,2.0002001 0 0 0 1.0703,-1.77148 v -13.42774 a 2.0005039,2.0005039 0 0 0 -4,-0.002 h -50.123 a 2.0002001,2.0002001 0 0 0 -2.0313,-2.02929 z"
           transform="scale(0.26458333)"
           id="path105617"
           inkscape:connector-curvature="0" />
        <path
           style="color:#000000;font-style:normal;font-variant:normal;font-weight:normal;font-stretch:normal;font-size:medium;line-height:normal;font-family:sans-serif;font-variant-ligatures:normal;font-variant-position:normal;font-variant-caps:normal;font-variant-numeric:normal;font-variant-alternates:normal;font-feature-settings:normal;text-indent:0;text-align:start;text-decoration:none;text-decoration-line:none;text-decoration-style:solid;text-decoration-color:#000000;letter-spacing:normal;word-spacing:normal;text-transform:none;writing-mode:lr-tb;direction:ltr;text-orientation:mixed;dominant-baseline:auto;baseline-shift:baseline;text-anchor:start;white-space:normal;shape-padding:0;clip-rule:nonzero;display:inline;overflow:visible;visibility:visible;opacity:1;isolation:auto;mix-blend-mode:normal;color-interpolation:sRGB;color-interpolation-filters:linearRGB;solid-color:#000000;solid-opacity:1;vector-effect:none;fill:url(#linearGradient7450);fill-opacity:1;fill-rule:nonzero;stroke:none;stroke-width:4;stroke-linecap:round;stroke-linejoin:round;stroke-miterlimit:4;stroke-dasharray:none;stroke-dashoffset:0;stroke-opacity:1;color-rendering:auto;image-rendering:auto;shape-rendering:auto;text-rendering:auto;enable-background:accumulate"
           d="m 8605.3477,938.8125 a 2.0002001,2.0002001 0 0 0 -1.0469,0.26758 l -9.3613,5.40234 -10.0235,-5.42578 a 2.0002001,2.0002001 0 0 0 -0.9668,-0.24219 v 0 a 2.0002001,2.0002001 0 0 0 -1.0469,0.30274 l -15.7598,9.82422 a 2.0002001,2.0002001 0 0 0 -0.061,3.35937 l 15.7676,10.57813 a 2.0002001,2.0002001 0 0 0 2.1269,0.0586 l 10.0313,-5.89844 9.3242,5.16797 a 2.0002001,2.0002001 0 0 0 1.9707,-0.0156 l 17.0156,-9.81641 a 2.0002001,2.0002001 0 0 0 0,-3.4707 l -17.0156,-9.82422 a 2.0002001,2.0002001 0 0 0 -0.9531,-0.26758 z"
           id="path105619"
           transform="scale(0.26458333)"
           inkscape:connector-curvature="0" />
      </g>
      <g
         id="g106215"
         transform="matrix(2.2096229,0,0,2.2096229,-5541.8206,-659.21276)">
        <path
           style="color:#000000;font-style:normal;font-variant:normal;font-weight:normal;font-stretch:normal;font-size:medium;line-height:normal;font-family:sans-serif;font-variant-ligatures:normal;font-variant-position:normal;font-variant-caps:normal;font-variant-numeric:normal;font-variant-alternates:normal;font-feature-settings:normal;text-indent:0;text-align:start;text-decoration:none;text-decoration-line:none;text-decoration-style:solid;text-decoration-color:#000000;letter-spacing:normal;word-spacing:normal;text-transform:none;writing-mode:lr-tb;direction:ltr;text-orientation:mixed;dominant-baseline:auto;baseline-shift:baseline;text-anchor:start;white-space:normal;shape-padding:0;clip-rule:nonzero;display:inline;overflow:visible;visibility:visible;opacity:1;isolation:auto;mix-blend-mode:normal;color-interpolation:sRGB;color-interpolation-filters:linearRGB;solid-color:#000000;solid-opacity:1;vector-effect:none;fill:url(#linearGradient105629);fill-opacity:1;fill-rule:nonzero;stroke:none;stroke-width:4;stroke-linecap:round;stroke-linejoin:round;stroke-miterlimit:4;stroke-dasharray:none;stroke-dashoffset:0;stroke-opacity:1;color-rendering:auto;image-rendering:auto;shape-rendering:auto;text-rendering:auto;enable-background:accumulate"
           d="m 8568.166,948.60938 a 2.0002001,2.0002001 0 0 0 -1.9707,2.03124 v 13.4629 a 2.0002001,2.0002001 0 0 0 0.9902,1.72851 l 15.7676,9.21289 a 2.0002001,2.0002001 0 0 0 2,0.008 l 10.0176,-5.75195 9.3301,5.41797 a 2.0002001,2.0002001 0 0 0 1.9277,0.0449 l 17.0215,-8.92383 a 2.0002001,2.0002001 0 0 0 1.0703,-1.77148 v -13.42774 a 2.0005039,2.0005039 0 0 0 -4,-0.002 h -50.123 a 2.0002001,2.0002001 0 0 0 -2.0313,-2.02929 z"
           transform="scale(0.26458333)"
           id="path106211"
           inkscape:connector-curvature="0" />
        <path
           style="color:#000000;font-style:normal;font-variant:normal;font-weight:normal;font-stretch:normal;font-size:medium;line-height:normal;font-family:sans-serif;font-variant-ligatures:normal;font-variant-position:normal;font-variant-caps:normal;font-variant-numeric:normal;font-variant-alternates:normal;font-feature-settings:normal;text-indent:0;text-align:start;text-decoration:none;text-decoration-line:none;text-decoration-style:solid;text-decoration-color:#000000;letter-spacing:normal;word-spacing:normal;text-transform:none;writing-mode:lr-tb;direction:ltr;text-orientation:mixed;dominant-baseline:auto;baseline-shift:baseline;text-anchor:start;white-space:normal;shape-padding:0;clip-rule:nonzero;display:inline;overflow:visible;visibility:visible;opacity:1;isolation:auto;mix-blend-mode:normal;color-interpolation:sRGB;color-interpolation-filters:linearRGB;solid-color:#000000;solid-opacity:1;vector-effect:none;fill:url(#linearGradient105631);fill-opacity:1;fill-rule:nonzero;stroke:none;stroke-width:4;stroke-linecap:round;stroke-linejoin:round;stroke-miterlimit:4;stroke-dasharray:none;stroke-dashoffset:0;stroke-opacity:1;color-rendering:auto;image-rendering:auto;shape-rendering:auto;text-rendering:auto;enable-background:accumulate"
           d="m 8605.3477,938.8125 a 2.0002001,2.0002001 0 0 0 -1.0469,0.26758 l -9.3613,5.40234 -10.0235,-5.42578 a 2.0002001,2.0002001 0 0 0 -0.9668,-0.24219 v 0 a 2.0002001,2.0002001 0 0 0 -1.0469,0.30274 l -15.7598,9.82422 a 2.0002001,2.0002001 0 0 0 -0.061,3.35937 l 15.7676,10.57813 a 2.0002001,2.0002001 0 0 0 2.1269,0.0586 l 10.0313,-5.89844 9.3242,5.16797 a 2.0002001,2.0002001 0 0 0 1.9707,-0.0156 l 17.0156,-9.81641 a 2.0002001,2.0002001 0 0 0 0,-3.4707 l -17.0156,-9.82422 a 2.0002001,2.0002001 0 0 0 -0.9531,-0.26758 z"
           id="path106213"
           transform="scale(0.26458333)"
           inkscape:connector-curvature="0" />
      </g>
    </g>
  </g>
</svg>
