<?xml version="1.0" encoding="UTF-8" standalone="no"?>
<!-- Created with Inkscape (http://www.inkscape.org/) -->

<svg
   width="58.049992mm"
   height="58.050941mm"
   viewBox="0 0 58.049992 58.050941"
   version="1.1"
   id="svg7641"
   inkscape:version="1.1 (1:1.1+202105261517+ce6663b3b7)"
   sodipodi:docname="21-analytics-box.svg"
   xmlns:inkscape="http://www.inkscape.org/namespaces/inkscape"
   xmlns:sodipodi="http://sodipodi.sourceforge.net/DTD/sodipodi-0.dtd"
   xmlns="http://www.w3.org/2000/svg"
   xmlns:svg="http://www.w3.org/2000/svg">
  <sodipodi:namedview
     id="namedview7643"
     pagecolor="#ffffff"
     bordercolor="#666666"
     borderopacity="1.0"
     inkscape:pageshadow="2"
     inkscape:pageopacity="0.0"
     inkscape:pagecheckerboard="0"
     inkscape:document-units="mm"
     showgrid="false"
     inkscape:zoom="0.75187991"
     inkscape:cx="180.21495"
     inkscape:cy="31.254991"
     inkscape:window-width="1848"
     inkscape:window-height="1016"
     inkscape:window-x="72"
     inkscape:window-y="27"
     inkscape:window-maximized="1"
     inkscape:current-layer="layer1" />
  <defs
     id="defs7638" />
  <g
     inkscape:label="Layer 1"
     inkscape:groupmode="layer"
     id="layer1"
     transform="translate(-57.1895,-140.23638)">
    <g
       id="g116924"
       transform="translate(616.88376,-37.828824)">
      <path
         style="fill:#2d4996;fill-opacity:1;stroke:none;stroke-width:2.15431;stroke-linecap:round;stroke-linejoin:round;stroke-miterlimit:4;stroke-dasharray:none;stroke-dashoffset:0;stroke-opacity:1"
         d="m -548.16413,178.0652 c -6.38785,0 -11.53013,5.14317 -11.53013,11.53113 v 19.09942 h 3.33444 c 0.80434,-3.66902 4.08701,-6.44256 7.98688,-6.44256 2.30772,0 4.39622,0.97476 5.88797,2.52728 l 7.83729,-4.80978 c -0.82721,-1.27791 -1.31411,-2.79418 -1.31411,-4.42035 0,-4.49737 3.6818,-8.17923 8.17918,-8.17923 4.49742,0 8.18311,3.68186 8.18311,8.17923 0,2.40862 -1.06328,4.57705 -2.73615,6.07829 l 6.73687,8.01607 c 1.13851,-0.60347 2.43214,-0.94895 3.80359,-0.94895 3.90012,0 7.18518,2.77095 7.98981,6.43963 h 2.16111 v -25.53905 c 0,-6.38796 -5.14212,-11.53113 -11.53018,-11.53113 z m 16.07386,24.42013 -8.56871,5.25854 c 0.29768,0.84536 0.46815,1.74915 0.46815,2.69243 0,4.49733 -3.68469,8.17918 -8.18211,8.17918 -3.90017,0 -7.18289,-2.77095 -7.98688,-6.43963 h -3.33444 v 12.40921 c 0,6.38791 5.14228,11.53113 11.53013,11.53108 h 34.98968 c 6.38806,0 11.53018,-5.14317 11.53018,-11.53108 v -5.96958 h -2.16111 c -0.80503,3.66823 -4.09004,6.43868 -7.98981,6.43868 -4.49742,0 -8.17923,-3.68185 -8.17923,-8.17923 0,-1.87317 0.64589,-3.59955 1.71628,-4.98269 l -7.15842,-8.51431 c -0.75018,0.22866 -1.54407,0.35453 -2.36605,0.35453 -1.57963,0 -3.05342,-0.46244 -4.30766,-1.24713 z"
         id="path114733"
         inkscape:connector-curvature="0" />
      <path
         style="color:#000000;font-style:normal;font-variant:normal;font-weight:normal;font-stretch:normal;font-size:medium;line-height:normal;font-family:sans-serif;font-variant-ligatures:normal;font-variant-position:normal;font-variant-caps:normal;font-variant-numeric:normal;font-variant-alternates:normal;font-feature-settings:normal;text-indent:0;text-align:start;text-decoration:none;text-decoration-line:none;text-decoration-style:solid;text-decoration-color:#000000;letter-spacing:normal;word-spacing:normal;text-transform:none;writing-mode:lr-tb;direction:ltr;text-orientation:mixed;dominant-baseline:auto;baseline-shift:baseline;text-anchor:start;white-space:normal;shape-padding:0;clip-rule:nonzero;display:inline;overflow:visible;visibility:visible;isolation:auto;mix-blend-mode:normal;color-interpolation:sRGB;color-interpolation-filters:linearRGB;solid-color:#000000;solid-opacity:1;vector-effect:none;fill:#0b951c;fill-opacity:1;fill-rule:nonzero;stroke:none;stroke-width:3.01603;stroke-linecap:round;stroke-linejoin:round;stroke-miterlimit:4;stroke-dasharray:none;stroke-dashoffset:0;stroke-opacity:1;color-rendering:auto;image-rendering:auto;shape-rendering:auto;text-rendering:auto;enable-background:accumulate"
         d="m -548.37325,205.73726 c 2.61616,0 4.6989,2.08287 4.6989,4.69889 0,2.61602 -2.08274,4.69889 -4.6989,4.69889 -2.61596,0 -4.69889,-2.08287 -4.69889,-4.69889 0,-2.61602 2.08293,-4.69889 4.69889,-4.69889 z"
         id="path114735"
         inkscape:connector-curvature="0" />
      <path
         style="color:#000000;font-style:normal;font-variant:normal;font-weight:normal;font-stretch:normal;font-size:medium;line-height:normal;font-family:sans-serif;font-variant-ligatures:normal;font-variant-position:normal;font-variant-caps:normal;font-variant-numeric:normal;font-variant-alternates:normal;font-feature-settings:normal;text-indent:0;text-align:start;text-decoration:none;text-decoration-line:none;text-decoration-style:solid;text-decoration-color:#000000;letter-spacing:normal;word-spacing:normal;text-transform:none;writing-mode:lr-tb;direction:ltr;text-orientation:mixed;dominant-baseline:auto;baseline-shift:baseline;text-anchor:start;white-space:normal;shape-padding:0;clip-rule:nonzero;display:inline;overflow:visible;visibility:visible;isolation:auto;mix-blend-mode:normal;color-interpolation:sRGB;color-interpolation-filters:linearRGB;solid-color:#000000;solid-opacity:1;vector-effect:none;fill:#0b951c;fill-opacity:1;fill-rule:nonzero;stroke:none;stroke-width:3.01603;stroke-linecap:round;stroke-linejoin:round;stroke-miterlimit:4;stroke-dasharray:none;stroke-dashoffset:0;stroke-opacity:1;color-rendering:auto;image-rendering:auto;shape-rendering:auto;text-rendering:auto;enable-background:accumulate"
         d="m -527.78252,190.85133 c 2.61597,0 4.69889,2.08286 4.69889,4.69889 0,2.61602 -2.08292,4.69889 -4.69889,4.69889 -2.61596,0 -4.69889,-2.08287 -4.69889,-4.69889 0,-2.61603 2.08293,-4.69889 4.69889,-4.69889 z"
         id="path114737"
         inkscape:connector-curvature="0" />
      <path
         style="color:#000000;font-style:normal;font-variant:normal;font-weight:normal;font-stretch:normal;font-size:medium;line-height:normal;font-family:sans-serif;font-variant-ligatures:normal;font-variant-position:normal;font-variant-caps:normal;font-variant-numeric:normal;font-variant-alternates:normal;font-feature-settings:normal;text-indent:0;text-align:start;text-decoration:none;text-decoration-line:none;text-decoration-style:solid;text-decoration-color:#000000;letter-spacing:normal;word-spacing:normal;text-transform:none;writing-mode:lr-tb;direction:ltr;text-orientation:mixed;dominant-baseline:auto;baseline-shift:baseline;text-anchor:start;white-space:normal;shape-padding:0;clip-rule:nonzero;display:inline;overflow:visible;visibility:visible;isolation:auto;mix-blend-mode:normal;color-interpolation:sRGB;color-interpolation-filters:linearRGB;solid-color:#000000;solid-opacity:1;vector-effect:none;fill:#0b951c;fill-opacity:1;fill-rule:nonzero;stroke:none;stroke-width:3.01603;stroke-linecap:round;stroke-linejoin:round;stroke-miterlimit:4;stroke-dasharray:none;stroke-dashoffset:0;stroke-opacity:1;color-rendering:auto;image-rendering:auto;shape-rendering:auto;text-rendering:auto;enable-background:accumulate"
         d="m -511.7952,212.17621 c 2.61597,0 4.69889,2.08288 4.69889,4.69889 0,2.61602 -2.08292,4.69889 -4.69889,4.69889 -2.61615,0 -4.69889,-2.08287 -4.69889,-4.69889 0,-2.61601 2.08274,-4.69889 4.69889,-4.69889 z"
         id="path114739"
         inkscape:connector-curvature="0" />
    </g>
  </g>
</svg>
