<?xml version="1.0" encoding="UTF-8" standalone="no"?>
<!-- Created with Inkscape (http://www.inkscape.org/) -->

<svg
   width="59.10918mm"
   height="57.716091mm"
   viewBox="0 0 59.10918 57.716091"
   version="1.1"
   id="svg13130"
   inkscape:version="1.1 (1:1.1+202105261517+ce6663b3b7)"
   sodipodi:docname="25-cloud-geek.svg"
   xmlns:inkscape="http://www.inkscape.org/namespaces/inkscape"
   xmlns:sodipodi="http://sodipodi.sourceforge.net/DTD/sodipodi-0.dtd"
   xmlns="http://www.w3.org/2000/svg"
   xmlns:svg="http://www.w3.org/2000/svg">
  <sodipodi:namedview
     id="namedview13132"
     pagecolor="#ffffff"
     bordercolor="#666666"
     borderopacity="1.0"
     inkscape:pageshadow="2"
     inkscape:pageopacity="0.0"
     inkscape:pagecheckerboard="0"
     inkscape:document-units="mm"
     showgrid="false"
     inkscape:zoom="0.75187991"
     inkscape:cx="209.47494"
     inkscape:cy="96.424973"
     inkscape:window-width="1848"
     inkscape:window-height="1016"
     inkscape:window-x="72"
     inkscape:window-y="27"
     inkscape:window-maximized="1"
     inkscape:current-layer="layer1" />
  <defs
     id="defs13127" />
  <g
     inkscape:label="Layer 1"
     inkscape:groupmode="layer"
     id="layer1"
     transform="translate(-49.621953,-123.16091)">
    <path
       inkscape:connector-curvature="0"
       id="path144021"
       style="fill:#2c89a0;stroke-width:0.377172"
       d="m 80.75887,123.16091 c -8.65449,0 -15.89813,6.56384 -16.75103,15.1765 -1.4381,-0.79931 -3.05668,-1.21904 -4.70194,-1.21889 -5.34399,0 -9.67581,4.3329 -9.67581,9.67656 -0.1293,5.11866 1.27818,11.17598 4.51684,14.63045 0.38408,0.47055 0.74743,0.80669 1.09906,1.05609 0.70925,-2.22197 2.89407,-3.98386 5.25496,-3.98386 h 0.0577 c 0.0373,-0.67445 0.0877,-1.34944 0.13674,-2.02762 12.77849,2.39137 19.33668,0.0875 25.49824,-1.63748 0.93441,-0.26158 6.06601,-7.81865 6.06597,-7.81865 0,0 -1.32651,6.6144 -0.34944,6.47764 2.03455,-0.28431 3.96169,-0.2258 5.95386,0.47007 0.21907,0.97409 0.3901,2.92169 0.3971,4.53604 h 1.5284 c 1.8847,0 3.65239,1.12545 4.65203,2.70889 3.36326,-3.77047 5.10482,-11.95753 3.91626,-15.99447 -0.52478,-4.26258 -4.14544,-7.46432 -8.44003,-7.46463 -0.82297,0 -1.64164,0.12038 -2.43008,0.35485 -0.96363,-8.51013 -8.1622,-14.94036 -16.72645,-14.94149 v 0 z M 60.5002,162.073 a 1.920245,1.920245 0 0 0 -1.92163,1.91856 v 14.96376 a 1.920245,1.920245 0 0 0 1.92163,1.92168 h 14.96147 a 1.920245,1.920245 0 0 0 1.92085,-1.92168 v -5.56137 h 5.52452 v 5.56137 a 1.920245,1.920245 0 0 0 1.91861,1.92168 h 14.96451 a 1.920245,1.920245 0 0 0 1.92167,-1.92168 V 163.99156 A 1.920245,1.920245 0 0 0 99.79016,162.073 H 84.82565 a 1.920245,1.920245 0 0 0 -1.91861,1.91856 v 5.56141 h -5.52452 v -5.56141 A 1.920245,1.920245 0 0 0 75.46167,162.073 Z m 1.91856,3.8402 h 11.12357 v 11.12356 H 62.41876 Z m 24.32852,0 h 11.12356 v 11.12356 H 86.74728 Z m -18.77403,3.37017 a 2.1908321,2.1908321 0 0 0 -2.18353,2.19049 2.1908321,2.1908321 0 0 0 2.19045,2.19044 2.1908321,2.1908321 0 0 0 2.1912,-2.19044 2.1908321,2.1908321 0 0 0 -2.1912,-2.19049 z m 24.32161,0 a 2.1908321,2.1908321 0 0 0 -2.17667,2.19049 2.1908321,2.1908321 0 0 0 2.19125,2.19044 2.1908321,2.1908321 0 0 0 2.19045,-2.19044 2.1908321,2.1908321 0 0 0 -2.19045,-2.19049 2.1908321,2.1908321 0 0 0 -0.007,0 z" />
  </g>
</svg>
