<?xml version="1.0" encoding="UTF-8" standalone="no"?>
<!-- Created with Inkscape (http://www.inkscape.org/) -->

<svg
   width="72.049057mm"
   height="30.33758mm"
   viewBox="0 0 72.049057 30.33758"
   version="1.1"
   id="svg13592"
   inkscape:version="1.1 (1:1.1+202105261517+ce6663b3b7)"
   sodipodi:docname="27-code-glasses.svg"
   xmlns:inkscape="http://www.inkscape.org/namespaces/inkscape"
   xmlns:sodipodi="http://sodipodi.sourceforge.net/DTD/sodipodi-0.dtd"
   xmlns="http://www.w3.org/2000/svg"
   xmlns:svg="http://www.w3.org/2000/svg">
  <sodipodi:namedview
     id="namedview13594"
     pagecolor="#ffffff"
     bordercolor="#666666"
     borderopacity="1.0"
     inkscape:pageshadow="2"
     inkscape:pageopacity="0.0"
     inkscape:pagecheckerboard="0"
     inkscape:document-units="mm"
     showgrid="false"
     inkscape:zoom="0.75187991"
     inkscape:cx="99.084972"
     inkscape:cy="27.264992"
     inkscape:window-width="1848"
     inkscape:window-height="1016"
     inkscape:window-x="72"
     inkscape:window-y="27"
     inkscape:window-maximized="1"
     inkscape:current-layer="layer1" />
  <defs
     id="defs13589" />
  <g
     inkscape:label="Layer 1"
     inkscape:groupmode="layer"
     id="layer1"
     transform="translate(-78.69346,-141.42481)">
    <path
       id="path270814"
       style="color:#000000;font-size:23.9599px;-inkscape-font-specification:Meera;letter-spacing:0px;word-spacing:0px;fill:#1a1a1a;fill-opacity:1;stroke:none;stroke-width:2.46247;-inkscape-stroke:none"
       d="m 89.71449,141.42481 -3.10378,8e-4 c -1.36574,0 -2.6669,0.46326 -3.69769,1.3122 -1.08862,0.885 -1.6753,2.19409 -1.6753,3.5919 v 6.33412 c 0,0.73497 -0.16187,1.14407 -0.26533,1.27773 -0.10331,0.13371 -0.11447,0.16673 -0.50341,0.16673 h -1.77552 v 5.07724 h 1.77552 c 0.42978,0 0.62206,0.0773 0.66614,0.097 0.0683,0.69503 0.10253,1.22643 0.10253,1.48934 v 5.96379 c 0,1.39091 0.59294,2.69501 1.66648,3.61756 1.02541,0.88947 2.33377,1.39235 3.70652,1.39235 h 3.10378 v -4.69248 h -1.68176 c -0.50673,0 -0.83596,-0.10706 -1.14947,-0.32624 l -0.006,-0.003 -0.006,-0.006 c -0.27944,-0.19092 -0.29981,-0.23778 -0.29981,-0.52905 v -7.00024 c 0,-0.95941 -0.48624,-1.79074 -1.14705,-2.51698 0.66014,-0.67376 1.14705,-1.46466 1.14705,-2.39033 v -7.35293 c 0,-0.19823 0.003,-0.24941 0.31582,-0.46973 l 0.006,-0.006 0.003,-0.002 c 0.31412,-0.22652 0.63867,-0.33506 1.13824,-0.33506 h 1.68096 z m 50.00765,0 v 4.69007 h 1.68173 c 0.49956,0 0.82333,0.10855 1.13742,0.33507 l 0.003,0.002 0.006,0.006 c 0.31268,0.22033 0.31503,0.27151 0.31503,0.46973 v 7.35294 c 0,0.92567 0.48691,1.71657 1.14705,2.39033 -0.6608,0.72624 -1.14705,1.55756 -1.14705,2.51697 v 7.00024 c 0,0.29128 -0.0203,0.33813 -0.29981,0.52905 l -0.006,0.006 -0.006,0.003 c -0.31348,0.21919 -0.64353,0.32624 -1.15027,0.32624 h -1.68173 v 4.69249 h 3.10373 c 1.37275,0 2.68114,-0.50289 3.70655,-1.39236 1.07356,-0.92254 1.66647,-2.22664 1.66647,-3.61755 v -5.96379 c 0,-0.26291 0.0352,-0.79432 0.10347,-1.48935 0.044,-0.0197 0.23552,-0.097 0.6653,-0.097 h 1.77549 v -5.07723 h -1.77549 c -0.3889,0 -0.40002,-0.033 -0.50339,-0.16673 -0.10331,-0.13367 -0.26535,-0.54277 -0.26535,-1.27773 v -6.33413 c 0,-1.3978 -0.58672,-2.7069 -1.6753,-3.5919 -1.03082,-0.84893 -2.33195,-1.31219 -3.69772,-1.31219 z m -37.9302,0.14108 v 4.51372 h 3.51977 v 21.06084 h -3.51977 v 4.62194 h 8.40142 v -1.19516 -11.64703 h 9.04989 v 11.64703 1.19516 h 8.40142 v -4.62194 h -3.51977 v -21.06084 h 3.51977 v -4.51372 h -8.40142 v 12.47186 h -9.04989 v -12.47186 z m -5.73533,11.35765 a 3.8052884,3.8052884 0 0 0 -3.80513,3.80593 3.8052884,3.8052884 0 0 0 3.80513,3.80512 3.8052884,3.8052884 0 0 0 3.80513,-3.80512 3.8052884,3.8052884 0 0 0 -3.80513,-3.80593 z m 37.48292,0 a 3.8052884,3.8052884 0 0 0 -3.80512,3.80593 3.8052884,3.8052884 0 0 0 3.80512,3.80512 3.8052884,3.8052884 0 0 0 3.80509,-3.80512 3.8052884,3.8052884 0 0 0 -3.80509,-3.80593 z" />
  </g>
</svg>
