<?xml version="1.0" encoding="UTF-8" standalone="no"?>
<!-- Created with Inkscape (http://www.inkscape.org/) -->

<svg
   width="48.84679mm"
   height="59.024494mm"
   viewBox="0 0 48.84679 59.024494"
   version="1.1"
   id="svg13828"
   inkscape:version="1.1 (1:1.1+202105261517+ce6663b3b7)"
   sodipodi:docname="28-unicorn-in-circle.svg"
   xmlns:inkscape="http://www.inkscape.org/namespaces/inkscape"
   xmlns:sodipodi="http://sodipodi.sourceforge.net/DTD/sodipodi-0.dtd"
   xmlns="http://www.w3.org/2000/svg"
   xmlns:svg="http://www.w3.org/2000/svg">
  <sodipodi:namedview
     id="namedview13830"
     pagecolor="#ffffff"
     bordercolor="#666666"
     borderopacity="1.0"
     inkscape:pageshadow="2"
     inkscape:pageopacity="0.0"
     inkscape:pagecheckerboard="0"
     inkscape:document-units="mm"
     showgrid="false"
     inkscape:zoom="0.75187991"
     inkscape:cx="165.58495"
     inkscape:cy="149.62496"
     inkscape:window-width="1848"
     inkscape:window-height="1016"
     inkscape:window-x="72"
     inkscape:window-y="27"
     inkscape:window-maximized="1"
     inkscape:current-layer="layer1" />
  <defs
     id="defs13825" />
  <g
     inkscape:label="Layer 1"
     inkscape:groupmode="layer"
     id="layer1"
     transform="translate(-61.096029,-109.09938)">
    <g
       id="g14016">
      <circle
         style="fill:#ececec;fill-opacity:1;stroke:none;stroke-width:5.77432;stroke-linecap:square;stroke-linejoin:miter;stroke-miterlimit:4;stroke-dasharray:none;stroke-dashoffset:0;stroke-opacity:1"
         id="circle3065"
         cx="85.519424"
         cy="143.70032"
         r="24.423395" />
      <path
         style="fill:#2f0097;fill-opacity:1;stroke-width:1.45495"
         d="m 108.16696,109.09942 c -0.13967,0.007 -1.64907,1.02783 -10.019498,6.62611 -2.561334,1.71307 -4.878514,3.2371 -6.590464,4.34119 -1.777059,1.14607 -2.900831,1.83882 -2.900831,1.77352 0,-0.12818 0.146993,-0.8003 0.326606,-1.49323 0.07304,-0.28168 0.123089,-0.57254 0.160467,-0.79975 -1.199722,-0.19046 -2.444735,-0.26879 -3.623912,-0.27019 -13.488518,1.2e-4 -24.423077,10.93469 -24.423179,24.4232 -1.31e-4,13.48867 10.934516,24.42349 24.423179,24.4236 0.350322,-0.004 0.700484,-0.0173 1.050254,-0.0373 -1.329459,-1.98077 -2.403283,-4.29221 -3.079048,-6.72978 -0.195254,-0.70413 -0.378243,-2.42825 -0.439293,-4.14327 -0.103738,-2.90067 0.02546,-3.89787 0.903552,-6.97606 0.08599,-0.3015 0.04394,-0.47208 -0.116396,-0.47208 -0.458818,0 -3.011349,-1.10068 -4.298571,-1.85382 -1.650886,-0.96588 -3.265427,-2.50341 -3.944538,-3.75603 -0.609231,-1.12378 -1.204334,-3.72323 -1.204334,-5.2386 0.0044,-2.44114 0.704093,-4.80276 1.884973,-6.35567 l 0.399136,-0.52452 -0.213921,0.94413 c -0.11756,0.51927 -0.212656,1.79385 -0.212656,2.83239 0.0029,4.13237 1.849603,7.26267 5.56602,9.43842 1.213223,0.71031 4.413425,1.74246 10.618153,3.42452 10.603671,2.87459 10.668511,2.88868 12.027821,2.58448 2.36439,-0.52914 3.91413,-2.41695 4.0859,-4.97594 0.0645,-0.96042 -0.0102,-1.46568 -0.30365,-2.03537 -0.21418,-0.41681 -3.27638,-3.99597 -6.80477,-7.95379 -3.52847,-3.95784 -6.709641,-7.5332 -7.069508,-7.9452 l -0.654406,-0.74908 1.003958,-1.24408 c 0.427449,-0.52972 1.674747,-2.11232 2.994661,-3.79373 -0.613217,-0.34704 -1.241187,-0.66737 -1.882106,-0.96011 0.640919,0.29274 1.268889,0.61307 1.882106,0.96011 0.385037,-0.49051 0.740699,-0.94153 1.128108,-1.43668 1.715287,-2.19247 4.451017,-5.68576 6.079487,-7.76284 1.62844,-2.07709 3.03831,-3.90658 3.13316,-4.0654 0.0544,-0.0912 0.16006,-0.20141 0.11348,-0.19916 z m -14.598365,11.58729 c 0.387292,0.13968 0.770962,0.2892 1.150675,0.4483 -0.379713,-0.1591 -0.763383,-0.30858 -1.150675,-0.4483 z m -5.685661,8.83564 c 1.60571,-10e-6 2.907394,1.30167 2.907365,2.90738 2.9e-5,1.60571 -1.301655,2.90739 -2.907365,2.90738 -1.605709,1e-5 -2.907393,-1.30167 -2.907378,-2.90738 -1.5e-5,-1.60571 1.301669,-2.90739 2.907378,-2.90738 z"
         id="path3067"
         inkscape:connector-curvature="0"
         sodipodi:nodetypes="ccsssccscccccsccccccccscccccccccccccccccccccc" />
    </g>
  </g>
</svg>
