<?xml version="1.0" encoding="UTF-8" standalone="no"?>
<!-- Created with Inkscape (http://www.inkscape.org/) -->

<svg
   width="86.37764mm"
   height="59.314709mm"
   viewBox="0 0 86.37764 59.314709"
   version="1.1"
   id="svg14876"
   inkscape:version="1.1 (1:1.1+202105261517+ce6663b3b7)"
   sodipodi:docname="32-line-gazelle.svg"
   xmlns:inkscape="http://www.inkscape.org/namespaces/inkscape"
   xmlns:sodipodi="http://sodipodi.sourceforge.net/DTD/sodipodi-0.dtd"
   xmlns="http://www.w3.org/2000/svg"
   xmlns:svg="http://www.w3.org/2000/svg">
  <sodipodi:namedview
     id="namedview14878"
     pagecolor="#ffffff"
     bordercolor="#666666"
     borderopacity="1.0"
     inkscape:pageshadow="2"
     inkscape:pageopacity="0.0"
     inkscape:pagecheckerboard="0"
     inkscape:document-units="mm"
     showgrid="false"
     inkscape:zoom="0.75187991"
     inkscape:cx="154.94496"
     inkscape:cy="166.91495"
     inkscape:window-width="1848"
     inkscape:window-height="1016"
     inkscape:window-x="72"
     inkscape:window-y="27"
     inkscape:window-maximized="1"
     inkscape:current-layer="layer1" />
  <defs
     id="defs14873" />
  <g
     inkscape:label="Layer 1"
     inkscape:groupmode="layer"
     id="layer1"
     transform="translate(-63.935696,-104.48521)">
    <g
       id="g674272"
       transform="matrix(1.1300181,0,0,1.1300181,660.19099,353.11504)">
      <path
         style="color:#000000;font-style:normal;font-variant:normal;font-weight:normal;font-stretch:normal;font-size:medium;line-height:normal;font-family:sans-serif;font-variant-ligatures:normal;font-variant-position:normal;font-variant-caps:normal;font-variant-numeric:normal;font-variant-alternates:normal;font-feature-settings:normal;text-indent:0;text-align:start;text-decoration:none;text-decoration-line:none;text-decoration-style:solid;text-decoration-color:#000000;letter-spacing:normal;word-spacing:normal;text-transform:none;writing-mode:lr-tb;direction:ltr;text-orientation:mixed;dominant-baseline:auto;baseline-shift:baseline;text-anchor:start;white-space:normal;shape-padding:0;clip-rule:nonzero;display:inline;overflow:visible;visibility:visible;opacity:1;isolation:auto;mix-blend-mode:normal;color-interpolation:sRGB;color-interpolation-filters:linearRGB;solid-color:#000000;solid-opacity:1;vector-effect:none;fill:#ffeeaa;fill-opacity:1;fill-rule:nonzero;stroke:none;stroke-width:1.41133;stroke-linecap:round;stroke-linejoin:miter;stroke-miterlimit:4;stroke-dasharray:none;stroke-dashoffset:0;stroke-opacity:1;color-rendering:auto;image-rendering:auto;shape-rendering:auto;text-rendering:auto;enable-background:accumulate"
         d="m -474.71979,-219.60005 c 1.59631,2.79915 1.72046,3.39443 3.60162,3.81156 1.88053,0.41692 3.83699,0.29738 6.39289,0.97514 0,2.6e-4 0,-2.1e-4 0.003,0 0.86328,0.23449 1.57456,0.64472 2.31304,1.53169 0.73962,0.88845 1.4827,2.27432 2.24793,4.39198 l 0.0294,0.077 0.0434,0.0692 c 0.30052,0.46194 0.71684,0.71042 1.08159,0.93328 0.36484,0.22286 0.69705,0.41899 0.87125,0.58136 0.40285,0.37531 0.57769,1.06867 1.25161,1.77715 1.48312,1.55939 2.62559,2.98191 3.11145,3.99252 0.24291,0.50536 0.30302,0.88556 0.27024,1.08314 -0.0327,0.1979 -0.083,0.29904 -0.4227,0.45682 -0.44595,0.20708 -1.38139,0.17454 -2.41225,-0.0522 -1.03098,-0.2267 -2.13448,-0.59726 -3.05719,-0.81288 l -0.0563,-0.0119 h -0.0605 c -1.27254,-0.0789 -2.43893,0.51359 -3.43546,1.39682 -0.99653,0.88312 -1.86317,2.07562 -2.61742,3.37705 -1.31564,2.26991 -2.27726,4.85821 -2.74918,6.75515 -0.13509,-0.45277 -0.29363,-0.98772 -0.52813,-1.71669 l -0.0109,-0.0331 -0.0151,-0.031 c -0.51922,-1.20467 -1.66806,-2.55615 -4.43746,-4.3465 -0.12316,-0.0797 -0.26844,-0.11866 -0.41497,-0.11214 -0.22815,0.0106 -0.43709,0.13091 -0.56068,0.32297 -0.21066,0.32737 -0.11618,0.76344 0.21085,0.97462 2.64104,1.70736 3.52531,2.84598 3.90051,3.7114 0.33777,1.05541 0.53914,1.79899 0.72091,2.34766 0.18606,0.56136 0.37267,1.02841 0.82682,1.33171 0.45427,0.30319 0.92377,0.30175 1.48,0.30644 0.55634,0 1.27238,-0.0119 2.32545,0.0563 h 0.0269 0.0269 c 1.81959,-0.0171 3.30189,0.58907 3.87832,1.28571 0.28815,0.34832 0.38798,0.67574 0.31159,1.10226 -0.0764,0.42652 -0.37647,0.98751 -1.06658,1.62729 -2.05304,1.90333 -3.49907,2.85736 -5.2922,3.37808 -1.71129,0.49696 -3.80686,0.59475 -7.03816,0.59939 0.0276,0.40118 -0.50842,-0.92267 0.006,-0.80996 3.37562,0.0163 7.25796,0.13716 10.03188,-2.6368 -0.003,0 0.29366,-0.28075 0.5271,-0.57722 0.11684,-0.14818 0.23538,-0.28908 0.32298,-0.55035 0.0437,-0.13058 0.0982,-0.32306 0.004,-0.5855 -0.0938,-0.26244 -0.38232,-0.46705 -0.58393,-0.51676 -3.23218,-0.79959 -5.86359,0.11384 -8.18864,0.46302 -2.32506,0.34917 -4.31245,0.29059 -6.97013,-2.31717 -0.14076,-0.13762 -0.33256,-0.21054 -0.52917,-0.20051 -0.17635,0.009 -0.34298,0.0848 -0.46662,0.21084 -0.27308,0.27806 -0.26876,0.72479 0.009,0.99787 0.50678,0.49726 1.00711,0.90991 1.50225,1.25832 -1.85341,0.79758 -4.24011,1.06685 -6.6239,0.88367 -2.51065,-0.19288 -5.01033,-0.88275 -6.84765,-1.84536 0.62717,-0.47794 1.323,-0.9297 2.11979,-1.34256 0.34666,-0.17924 0.4817,-0.60556 0.30178,-0.95188 -0.12454,-0.23941 -0.37465,-0.38686 -0.64442,-0.37982 v 0.003 c -0.005,-5e-5 -0.01,-5e-5 -0.0145,0 -0.1016,0.004 -0.2009,0.0302 -0.29144,0.0765 -2.82527,1.46401 -4.51493,3.39921 -6.06578,5.14284 -1.55094,1.74353 -2.95077,3.28451 -5.29373,4.26279 -0.99185,0.41415 -2.30442,0.35416 -4.06384,0.2558 -1.75954,-0.0982 -3.93494,-0.2063 -6.58667,0.29404 -1.69905,0.32048 -3.22684,1.71178 -5.06532,3.14037 -1.83848,1.42829 -3.9284,2.93673 -6.38619,3.67988 -1.0595,0.32018 -2.10292,0.41311 -3.44237,0.43065 -0.47662,0.20898 -0.50148,-0.95768 -0.17099,-0.86522 4.83798,-0.01 8.08967,-2.64499 10.67289,-5.09016 1.18457,-1.12126 2.00491,-2.2218 2.69441,-3.00912 0.68961,-0.78732 1.18801,-1.19209 1.74561,-1.25419 0.36714,-0.0405 1.56475,2.7e-4 2.6815,-0.0744 0.55838,-0.0363 1.11332,-0.10177 1.61542,-0.24856 0.50212,-0.14733 1.02065,-0.37592 1.29397,-0.93121 0.57586,-1.16957 0.33036,-2.33501 0.16227,-3.29644 -0.16804,-0.96143 -0.27133,-1.71009 0.12351,-2.42155 0.18811,-0.3406 0.0647,-0.76918 -0.27544,-0.95809 -0.10694,-0.0597 -0.22738,-0.0904 -0.34985,-0.0894 v -5.2e-4 c -0.0678,7.9e-4 -0.55722,-0.4795 -0.72607,-0.58291 0.58578,-0.37796 1.18178,-0.73399 1.80559,-1.04697 h 0.003 c 4.42841,-2.19384 7.64304,-1.64247 11.92691,-1.50688 h 0.009 0.009 c 8.74885,0.0736 12.42796,-2.33384 17.50693,-5.34902 4.32932,-2.55155 7.44373,-5.3769 11.13988,-8.87078 0.2689,0.30319 0.52604,0.5562 0.74726,0.73639 0.30261,0.24673 0.7483,0.20093 0.99425,-0.10232 0.24559,-0.30239 0.19939,-0.7464 -0.10284,-0.99219 -0.31779,-0.25903 -1.24796,-1.30869 -1.79163,-2.27738 -0.27183,-0.48423 -0.44987,-0.96107 -0.48315,-1.26245 -0.0287,-0.25966 0.01,-0.28768 0.10178,-0.35244 -0.0619,0.0384 0.022,0.0106 0.3111,0.17519 0.32869,0.19118 0.75129,0.52587 1.14514,0.88315 0.78775,0.71446 1.47175,1.50223 1.47175,1.50223 0.357,0.41223 1.02685,0.28131 1.202,-0.23513 0.18373,-0.54387 0.0875,-1.06056 -0.0811,-1.64796 -0.16865,-0.58729 -0.45093,-1.22827 -0.83148,-1.86293 -0.76107,-1.26932 -1.91188,-2.53798 -3.4463,-3.04995 -3.43287,-1.14556 -6.13641,1.24406 -9.40542,-5.04406 -0.22099,-0.11867 0.66152,-0.85417 0.79003,-0.39783 z"
         id="path674266"
         sodipodi:nodetypes="csccscccsccscsscccssccccscsccscccccssssccccsccscccccsccccccccscsccccssccccscccccccccscccccssccsccsscccc" />
      <path
         inkscape:connector-curvature="0"
         id="path674268"
         style="color:#000000;font-style:normal;font-variant:normal;font-weight:normal;font-stretch:normal;font-size:medium;line-height:normal;font-family:sans-serif;font-variant-ligatures:normal;font-variant-position:normal;font-variant-caps:normal;font-variant-numeric:normal;font-variant-alternates:normal;font-feature-settings:normal;text-indent:0;text-align:start;text-decoration:none;text-decoration-line:none;text-decoration-style:solid;text-decoration-color:#000000;letter-spacing:normal;word-spacing:normal;text-transform:none;writing-mode:lr-tb;direction:ltr;text-orientation:mixed;dominant-baseline:auto;baseline-shift:baseline;text-anchor:start;white-space:normal;shape-padding:0;clip-rule:nonzero;display:inline;overflow:visible;visibility:visible;opacity:1;isolation:auto;mix-blend-mode:normal;color-interpolation:sRGB;color-interpolation-filters:linearRGB;solid-color:#000000;solid-opacity:1;vector-effect:none;fill:#ffcc00;fill-opacity:1;fill-rule:nonzero;stroke:none;stroke-width:1.41133;stroke-linecap:round;stroke-linejoin:miter;stroke-miterlimit:4;stroke-dasharray:none;stroke-dashoffset:0;stroke-opacity:1;color-rendering:auto;image-rendering:auto;shape-rendering:auto;text-rendering:auto;enable-background:accumulate"
         d="m -474.85736,-220.02287 c -0.11444,0.004 -0.22608,0.0367 -0.32528,0.0939 -0.33814,0.19341 -0.4556,0.62422 -0.26243,0.96249 1.5963,2.79916 3.31322,3.87922 5.19438,4.29635 1.88051,0.41692 3.83696,0.29743 6.39287,0.97519 0,3.2e-4 0,-2.1e-4 0.003,0 0.86328,0.23449 1.57425,0.64458 2.31272,1.53155 0.73963,0.88845 1.48297,2.27459 2.24818,4.39225 l 0.0292,0.0768 0.0435,0.0694 c 0.30053,0.46194 0.71693,0.71051 1.08167,0.93337 0.36486,0.22286 0.69684,0.41873 0.87105,0.5811 0.40284,0.37531 0.57808,1.06886 1.25201,1.77734 1.48312,1.55939 2.62513,2.98191 3.11097,3.99252 0.24292,0.50536 0.30346,0.88568 0.2707,1.08326 -0.0327,0.1979 -0.0832,0.29882 -0.42284,0.4566 -0.44595,0.20708 -1.38161,0.17443 -2.41249,-0.0523 -1.03098,-0.2267 -2.13427,-0.597 -3.05698,-0.81261 l -0.0562,-0.0117 h -0.0606 c -1.27253,-0.0789 -2.4392,0.51325 -3.43571,1.39648 -0.99654,0.88312 -1.86278,2.07584 -2.61702,3.37728 -1.31565,2.2699 -2.27744,4.85814 -2.74934,6.75508 -0.13509,-0.45277 -0.29366,-0.98778 -0.52814,-1.71675 l -0.0107,-0.0331 -0.0149,-0.0309 c -0.51922,-1.20467 -1.66855,-2.55613 -4.43795,-4.34649 -0.12316,-0.0797 -0.26807,-0.11896 -0.4146,-0.11244 -0.22815,0.0106 -0.43706,0.13097 -0.56066,0.32304 -0.21065,0.32736 -0.11641,0.76346 0.2106,0.97465 2.64105,1.70736 3.52524,2.84599 3.90046,3.71141 0.33776,1.05541 0.53931,1.79932 0.72108,2.34799 0.18607,0.56136 0.37282,1.0281 0.82696,1.3314 0.45428,0.3032 0.92346,0.30181 1.47969,0.3065 0.55635,0 1.27232,-0.0117 2.32539,0.0565 h 0.0271 0.0271 c 1.8196,-0.0171 3.30144,0.589 3.87786,1.28564 0.28815,0.34832 0.38843,0.67551 0.31205,1.10203 -0.0764,0.42652 -0.37665,0.98768 -1.06677,1.62746 -2.05303,1.90333 -3.49937,2.85708 -5.29249,3.3778 -1.79315,0.52072 -4.00784,0.60351 -7.50929,0.59977 -0.38954,-3e-4 -0.70564,0.31511 -0.7062,0.70465 -3.2e-4,0.3893 0.3147,0.70532 0.704,0.70624 3.52152,0 5.85733,-0.0597 7.90565,-0.6545 2.04843,-0.59476 3.73367,-1.72752 5.85925,-3.69807 0.84087,-0.77953 1.34804,-1.58755 1.4962,-2.41531 0.1482,-0.82754 -0.10957,-1.63918 -0.61525,-2.25037 -1.01029,-1.22099 -2.8619,-1.81479 -4.97327,-1.79612 h -0.006 c -1.07173,-0.0672 -1.84803,-0.0544 -2.35241,-0.0587 h -0.0998 c 0.061,-0.0832 0.10292,-0.17883 0.12293,-0.28004 0.32985,-1.69605 1.35364,-4.67561 2.76313,-7.10734 0.70474,-1.21598 1.509,-2.29637 2.33366,-3.02726 0.81378,-0.72128 1.60615,-1.07515 2.37939,-1.0376 0.8044,0.19384 1.88737,0.54899 2.99028,0.7917 1.13436,0.24953 2.29496,0.42492 3.30835,-0.0459 0.64148,-0.29796 1.11467,-0.86221 1.22114,-1.50444 0.10647,-0.64213 -0.0788,-1.27721 -0.39142,-1.92734 -0.62519,-1.30036 -1.83512,-2.75072 -3.35908,-4.3531 -0.35932,-0.37777 -0.55926,-1.13554 -1.31264,-1.83752 -0.36479,-0.33989 -0.76899,-0.55144 -1.09822,-0.75254 -0.29913,-0.18286 -0.51418,-0.35419 -0.60358,-0.46365 -0.78314,-2.14444 -1.56621,-3.64472 -2.45108,-4.7075 -0.90041,-1.08145 -1.92958,-1.69392 -3.03163,-1.99242 h -0.003 -0.003 c -2.76362,-0.73323 -4.85107,-0.63476 -6.45143,-0.98959 -1.60036,-0.35483 -2.80253,-1.03728 -4.27367,-3.61709 -0.12319,-0.21613 -0.35109,-0.35143 -0.59982,-0.35611 -0.0125,-3.3e-4 -0.0249,-3.3e-4 -0.0374,0 z m -2.01942,1.07664 c -0.005,-5e-5 -0.01,-5e-5 -0.0144,0 -0.10236,0.004 -0.20263,0.0302 -0.29384,0.0768 -0.34615,0.18005 -0.4805,0.60683 -0.29989,0.95269 3.57441,6.87584 9.27996,5.37534 11.80388,6.21749 1.04646,0.34929 2.03801,1.36246 2.68152,2.43569 0.0541,0.0896 0.0656,0.16632 0.11469,0.25636 -0.35592,-0.30714 -0.71826,-0.61962 -1.10042,-0.84184 -0.4805,-0.27951 -1.04211,-0.56105 -1.68533,-0.24366 -0.0192,0.009 -0.0379,0.0198 -0.0562,0.0309 -0.62335,0.38224 -0.85241,1.14055 -0.7834,1.76528 0.069,0.62474 0.33153,1.22163 0.65607,1.79996 0.15969,0.28453 0.33361,0.56116 0.51325,0.82424 -3.72888,3.52684 -6.75765,6.28183 -10.98797,8.77501 h -0.003 c -5.10712,3.03184 -8.27966,5.22098 -16.76119,5.15303 -4.18402,-0.1324 -7.83668,-0.70625 -12.59998,1.65444 h -0.003 -0.003 c -3.66691,1.8389 -6.07981,4.60103 -9.96201,5.41545 -0.38155,0.08 -0.62593,0.45424 -0.54576,0.83576 0.08,0.38129 0.45387,0.6256 0.8352,0.54579 4.37763,-0.91833 6.94405,-3.84881 10.3038,-5.53451 h 0.003 c 4.42841,-2.19384 7.64296,-1.64228 11.92684,-1.50669 h 0.009 0.009 c 8.74886,0.0736 12.42811,-2.33359 17.50709,-5.34878 4.32931,-2.55155 7.44342,-5.37705 11.13957,-8.87093 0.26887,0.30319 0.52638,0.55635 0.74759,0.73654 0.30261,0.24674 0.74806,0.20084 0.994,-0.10241 0.2456,-0.30238 0.1997,-0.74658 -0.10253,-0.99237 -0.31779,-0.25903 -1.24806,-1.30868 -1.79173,-2.27737 -0.27183,-0.48423 -0.45021,-0.96111 -0.4835,-1.26249 -0.0287,-0.25966 0.01,-0.28751 0.10199,-0.35227 -0.0619,0.0384 0.0218,0.0107 0.31092,0.17528 0.3287,0.19118 0.75173,0.52595 1.1456,0.88323 0.78775,0.71446 1.47142,1.50221 1.47142,1.50221 0.35699,0.41223 1.0267,0.28109 1.20184,-0.23534 0.18372,-0.54387 0.0875,-1.06043 -0.0811,-1.64783 -0.16862,-0.58729 -0.45097,-1.22824 -0.83152,-1.8629 -0.76108,-1.26932 -1.91176,-2.53832 -3.44619,-3.05029 -3.43286,-1.14556 -7.72892,0.75969 -10.99791,-5.52843 -0.12455,-0.23905 -0.37442,-0.38627 -0.64389,-0.37937 z m -29.27076,31.74883 c -0.2533,0.003 -0.4856,0.1414 -0.60865,0.36283 -0.6513,1.17384 -0.44987,2.37285 -0.27895,3.35028 0.1709,0.97744 0.29752,1.7446 -0.0397,2.4295 0.0124,-0.0256 -0.0973,0.10348 -0.42507,0.20014 -0.32783,0.096 -0.80418,0.1612 -1.30878,0.19406 -1.00933,0.0661 -2.07009,0.0107 -2.74602,0.0811 -1.11484,0.12417 -1.90341,0.87149 -2.65285,1.7272 -0.74937,0.8557 -1.51772,1.88648 -2.60216,2.91309 -2.55101,2.41467 -5.64758,4.79797 -10.11196,4.71529 -0.38953,-0.007 -0.71134,0.30231 -0.7189,0.69184 -0.007,0.38956 0.30233,0.7114 0.69189,0.71894 4.98264,0.0917 8.47837,-2.60979 11.10982,-5.10063 1.18461,-1.12124 2.00471,-2.22168 2.6942,-3.009 0.68961,-0.78732 1.18835,-1.19208 1.74596,-1.25417 0.36712,-0.0405 1.56477,0 2.68152,-0.0747 0.55838,-0.0363 1.11326,-0.10135 1.61534,-0.24814 0.50214,-0.14733 1.02058,-0.37638 1.2939,-0.93167 0.57588,-1.16957 0.33019,-2.33487 0.16208,-3.2963 -0.16804,-0.96143 -0.27135,-1.70981 0.12348,-2.42128 0.18814,-0.3406 0.0651,-0.76921 -0.27509,-0.95812 -0.10694,-0.0597 -0.22758,-0.0906 -0.35007,-0.0896 z m 17.01644,0.95599 c -0.005,-5e-5 -0.01,-5e-5 -0.0144,0 -0.10161,0.004 -0.2011,0.0305 -0.29164,0.0768 -2.82527,1.46401 -4.51455,3.39892 -6.06541,5.14255 -1.55094,1.74353 -2.95116,3.28489 -5.29412,4.26317 -0.99183,0.41415 -2.30422,0.35419 -4.06365,0.25583 -1.75953,-0.0982 -3.93467,-0.20643 -6.5864,0.29391 -1.69904,0.32048 -3.22686,1.71163 -5.06535,3.14022 -1.83848,1.42828 -3.92848,2.93678 -6.38626,3.67993 -1.17415,0.35483 -2.5308,0.44594 -4.04654,0.44594 -0.3893,-3.2e-4 -0.70531,0.3147 -0.70623,0.704 -3.2e-4,0.39017 0.31606,0.70655 0.70623,0.70624 1.56909,0 3.06057,-0.0843 4.45506,-0.5061 2.74878,-0.83096 4.97959,-2.46588 6.84495,-3.91538 1.86536,-1.4494 3.42445,-2.67124 4.46056,-2.86679 2.47824,-0.46749 4.49352,-0.37137 6.24514,-0.27343 1.75175,0.0982 3.27335,0.22766 4.68607,-0.36219 2.64819,-1.10567 4.24878,-2.87778 5.80519,-4.6276 0.76051,-0.85507 1.51444,-1.70704 2.38602,-2.51122 2.11643,1.23795 4.97918,2.05579 7.89242,2.27961 2.92478,0.22478 5.90145,-0.14562 8.19565,-1.44385 1.82372,0.83586 3.56113,0.84632 5.20208,0.59988 2.16758,-0.3256 4.2431,-0.81154 6.56766,-0.5331 -2.39143,2.26243 -5.88549,2.12748 -9.36167,2.12748 -0.38843,9.1e-4 -0.70308,0.31557 -0.704,0.704 -2.6e-4,0.38926 0.31474,0.70522 0.704,0.70614 3.48011,0 7.59815,0.26788 10.50173,-2.63572 -0.003,0 0.29361,-0.28079 0.52705,-0.57726 0.11683,-0.14818 0.23546,-0.2889 0.32306,-0.55017 0.0437,-0.13058 0.0981,-0.32303 0.004,-0.58547 -0.0938,-0.26244 -0.38221,-0.46685 -0.58383,-0.51656 v 0 c -3.23217,-0.79959 -5.86343,0.1134 -8.18848,0.46258 -2.32506,0.34917 -4.31241,0.2906 -6.97008,-2.31716 -0.14078,-0.13762 -0.33264,-0.21018 -0.52925,-0.20014 -0.17635,0.009 -0.34277,0.0845 -0.46642,0.21059 -0.27308,0.27805 -0.26905,0.72483 0.009,0.99792 0.50679,0.49725 1.00719,0.91022 1.50233,1.25864 -1.8534,0.79757 -4.24011,1.06684 -6.6239,0.88366 -2.51067,-0.19288 -5.01042,-0.88312 -6.84772,-1.84573 0.62717,-0.47794 1.32297,-0.92953 2.11976,-1.34239 0.34667,-0.17924 0.48202,-0.60583 0.30211,-0.95215 -0.12453,-0.23941 -0.37469,-0.38684 -0.64446,-0.37979 z"
         sodipodi:nodetypes="cccsccscccsscsssscccsccsccscsccscccccsssscccsssssccccsscssssssccscccsssccccccsccsscsscccccccsscccccscccccssccsccssccccccsccccsccccssccccsccccccccscsccccccsccsscscsccccccscssscccccsccccc" />
    </g>
  </g>
</svg>
