<?xml version="1.0" encoding="UTF-8" standalone="no"?>
<!-- Created with Inkscape (http://www.inkscape.org/) -->

<svg
   width="66.907913mm"
   height="58.4436mm"
   viewBox="0 0 66.907913 58.4436"
   version="1.1"
   id="svg10660"
   inkscape:version="1.1 (1:1.1+202105261517+ce6663b3b7)"
   sodipodi:docname="3-dog-greenery.svg"
   xmlns:inkscape="http://www.inkscape.org/namespaces/inkscape"
   xmlns:sodipodi="http://sodipodi.sourceforge.net/DTD/sodipodi-0.dtd"
   xmlns:xlink="http://www.w3.org/1999/xlink"
   xmlns="http://www.w3.org/2000/svg"
   xmlns:svg="http://www.w3.org/2000/svg">
  <sodipodi:namedview
     id="namedview10662"
     pagecolor="#ffffff"
     bordercolor="#666666"
     borderopacity="1.0"
     inkscape:pageshadow="2"
     inkscape:pageopacity="0.0"
     inkscape:pagecheckerboard="0"
     inkscape:document-units="mm"
     showgrid="false"
     inkscape:zoom="0.75187991"
     inkscape:cx="108.39497"
     inkscape:cy="240.06493"
     inkscape:window-width="1848"
     inkscape:window-height="1016"
     inkscape:window-x="72"
     inkscape:window-y="27"
     inkscape:window-maximized="1"
     inkscape:current-layer="layer1" />
  <defs
     id="defs10657">
    <linearGradient
       inkscape:collect="always"
       xlink:href="#linearGradient39840"
       id="linearGradient19584"
       gradientUnits="userSpaceOnUse"
       gradientTransform="translate(-1659.2557,-8344.3516)"
       x1="2380.2102"
       y1="5765.1831"
       x2="2379.0698"
       y2="5582.7412" />
    <linearGradient
       id="linearGradient39840"
       inkscape:collect="always">
      <stop
         id="stop39836"
         offset="0"
         style="stop-color:#2ca05a;stop-opacity:1" />
      <stop
         id="stop39838"
         offset="1"
         style="stop-color:#bcd35f;stop-opacity:1" />
    </linearGradient>
    <linearGradient
       inkscape:collect="always"
       xlink:href="#linearGradient39872"
       id="linearGradient19586"
       gradientUnits="userSpaceOnUse"
       gradientTransform="matrix(1.1824531,0,0,1.1824531,-2086.0371,-9380.7054)"
       x1="2339.2473"
       y1="5623.7427"
       x2="2448.7649"
       y2="5739.0342" />
    <linearGradient
       id="linearGradient39872"
       inkscape:collect="always">
      <stop
         id="stop39868"
         offset="0"
         style="stop-color:#bcd35f;stop-opacity:1" />
      <stop
         id="stop39870"
         offset="1"
         style="stop-color:#37a45a;stop-opacity:1" />
    </linearGradient>
    <linearGradient
       inkscape:collect="always"
       xlink:href="#linearGradient19540"
       id="linearGradient19588"
       gradientUnits="userSpaceOnUse"
       x1="754"
       y1="-2729.5"
       x2="739.74261"
       y2="-2594.0269" />
    <linearGradient
       inkscape:collect="always"
       id="linearGradient19540">
      <stop
         style="stop-color:#88aa00;stop-opacity:1"
         offset="0"
         id="stop19536" />
      <stop
         style="stop-color:#35a35a;stop-opacity:1"
         offset="1"
         id="stop19538" />
    </linearGradient>
  </defs>
  <g
     inkscape:label="Layer 1"
     inkscape:groupmode="layer"
     id="layer1"
     transform="translate(-76.337519,-85.144313)">
    <g
       transform="matrix(0.30019662,0,0,0.30019662,-108.04103,915.34497)"
       id="g19582">
      <path
         id="path19574"
         style="opacity:1;fill:url(#linearGradient19584);fill-opacity:1;stroke:none;stroke-width:5;stroke-linecap:round;stroke-linejoin:round;stroke-miterlimit:4;stroke-dasharray:none"
         d="m 820.34532,-2667.8099 c 10e-5,37.3877 -20.9981,69.871 -51.8444,86.3001 -13.2973,3.868 -45.8364,-2.6272 -45.8688,-2.3359 -0.2215,-0.8682 -32.2295,3.0004 -43.534,3.5393 -20.4633,-10.2004 -36.8449,-27.3677 -46.0388,-48.3957 -0.2441,-0.5582 16.1667,-1.1192 15.9329,-1.6828 -0.5099,-1.2287 -17.6453,-2.4701 -18.1059,-3.7236 -0.4258,-1.1588 -0.8303,-2.328 -1.2129,-3.5069 -0.1501,-0.4625 27.5738,-0.9264 27.4305,-1.3918 -0.3189,-1.0353 -28.4918,-2.0779 -28.7768,-3.1275 -2.2223,-8.1816 -3.4082,-16.7899 -3.4082,-25.6752 0,-2.6028 0.1018,-5.1818 0.3015,-7.7333 0.035,-0.4476 18.0858,-0.8945 18.1269,-1.3404 0.062,-0.6746 -17.8816,-1.3472 -17.8058,-2.0177 0.6305,-5.5806 1.7311,-11.0188 3.2612,-16.2741 0.4055,-1.3927 35.9429,-2.7725 36.4079,-4.1387 0.5396,-1.5851 -33.983,-3.1519 -33.3654,-4.6991 4.1466,-10.3892 10.0248,-19.8997 17.278,-28.175 0.64,-0.7301 41.9793,-1.4506 42.6404,-2.1613 0.5943,-0.6387 -39.4917,-1.2695 -38.8808,-1.8921 17.732,-18.0712 42.4315,-29.2814 69.7493,-29.2814 10.3487,0 20.3217,1.6088 29.6824,4.5899 1.4668,0.4671 -22.9001,0.9679 -21.4643,1.5015 0.9757,0.3626 27.7627,0.7403 28.7233,1.1329 7.8506,3.2083 15.1906,7.4085 21.8641,12.4449 1.2414,0.9368 -39.3582,1.9025 -38.164,2.8962 0.789,0.6565 43.3854,1.3252 44.1531,2.0059 16.4222,14.5587 27.9062,34.5635 31.622,57.184 0.2708,1.6485 -23.3302,3.3108 -23.143,4.986 0.1112,0.9952 24.0379,1.995 24.119,2.999 0.2124,2.6296 0.3206,5.2886 0.3206,7.9728 z"
         sodipodi:nodetypes="scccsssssssssssssssssssssssssss"
         inkscape:connector-curvature="0" />
      <path
         id="path19576"
         style="opacity:1;fill:url(#linearGradient19586);fill-opacity:1;stroke:none;stroke-width:5;stroke-linecap:round;stroke-linejoin:round;stroke-miterlimit:4;stroke-dasharray:none"
         d="m 697.42502,-2715.3866 a 51.144844,51.144844 0 0 0 -36.2188,15.0352 c 2.5038,0.345 4.122,0.6903 4.0039,1.0371 -0.1176,0.3455 -2.4943,0.6918 -5.9629,1.0391 a 51.144844,51.144844 0 0 0 -12.9687,34.0332 51.144844,51.144844 0 0 0 6.2265,24.457 c 2.6943,0.2599 4.5199,0.5183 4.5997,0.7773 0.034,0.1113 -1.5871,0.2229 -3.9766,0.334 a 51.144844,51.144844 0 0 0 44.2969,25.5781 51.144844,51.144844 0 0 0 51.1445,-51.1464 51.144844,51.144844 0 0 0 -51.1445,-51.1446 z"
         inkscape:connector-curvature="0" />
      <path
         sodipodi:nodetypes="scccssssscssssssccssssssssssssccscsssssccccsscsssssccccccsccscccssssssssssccsssssssssccssscsssscsssscssscccsssssccsssscsccssssccsccsssssscsss"
         d="m 764.55942,-2728.7339 c -0.6615,-0.078 -1.4,0.1786 -2.2539,0.9865 v 0 0 c -0.4572,0.4628 -0.837,1.0273 -1.2279,1.7212 -0.7816,1.3871 -1.5805,3.2736 -2.5786,5.6817 -0.7241,1.7472 -1.4915,3.2685 -2.1103,4.2622 -0.2364,0.3799 -0.4097,0.5891 -0.5516,0.7617 -0.077,0.094 -0.2005,0.1348 -0.3183,0.1065 -0.7502,-0.1827 -1.5081,-0.19 -2.3518,-0.064 -1.2063,0.1808 -2.5447,0.5598 -3.846,1.053 -1.3015,0.4933 -2.5567,1.0934 -3.5838,1.7587 -1.0469,0.678 -1.8733,1.2591 -2.2351,2.3995 -0.1477,0.4651 -0.299,0.7349 -0.5308,0.9616 -0.2451,0.2398 -0.6557,0.4972 -1.4298,0.768 -1.5526,0.5431 -4.4318,1.0677 -9.4631,1.8252 -1.4707,0.2213 -2.8621,0.5986 -3.9856,1.0571 -1.1649,0.3572 -1.9391,1.1978 -2.5118,1.9355 -0.4442,1.1574 -0.2195,2.3052 0.1664,3.6526 0.3816,1.3323 1.0075,2.784 1.767,4.1894 0.7592,1.4051 1.6477,2.7563 2.5827,3.8689 0.9401,1.1187 1.8607,1.9988 2.9969,2.4307 1.8912,0.719 6.5586,1.7997 10.8201,2.5725 2.0614,0.3737 4.0389,0.869 5.5276,1.3548 0.7448,0.2431 1.3679,0.4852 1.796,0.691 0.2225,0.1064 0.377,0.2352 0.4496,0.2934 0.049,0.038 0.083,0.091 0.1023,0.1498 0.045,0.1417 0.1219,0.3847 0.181,0.7243 0.098,0.5659 0.1837,1.323 0.2477,2.1998 0.1281,1.7534 0.174,3.9848 0.1436,6.2456 -0.02,1.5389 -0.1232,2.9478 -0.2123,4.3684 -0.019,0.3106 -0.427,0.4097 -0.5848,0.1416 -0.4869,-0.8244 -1.3896,-1.4756 -2.2457,-1.4756 -0.3808,0 -0.566,0.05 -1.0072,0.129 -0.4272,0.074 -0.9762,0.1835 -1.642,0.3227 -1.3307,0.2778 -3.119,0.6773 -5.2467,1.1694 -4.2551,0.9842 -9.8627,2.341 -15.7983,3.8315 -17.9411,4.5055 -36.7402,7.6243 -61.4011,10.1104 -4.7628,0.4804 -9.7426,0.9379 -14.9783,1.3757 0,3e-4 -0.011,3e-4 -0.012,0 -2.5511,0.2391 -4.4041,0.5381 -5.7357,0.9283 -1.4817,0.4835 -2.4686,1.1304 -2.4975,2.2039 0.018,1.7175 1.8026,2.3464 3.1447,2.8845 1.4942,0.5285 3.4685,1.0226 5.8503,1.4735 9.1109,1.7249 24.127,2.7229 38.5539,1.3029 0.2279,-0.021 0.4011,0.1976 0.3267,0.4142 -0.3379,0.9789 -0.8341,2.2519 -1.4423,3.6316 -1.3325,3.0236 -3.0349,8.0025 -3.8564,11.2821 -1.4043,5.6066 -6.3875,10.8795 -14.6724,15.0844 -3.1148,1.581 -4.9503,4.1083 -6.8533,9.1946 -1.338,3.5762 -4.3937,10.4152 -6.7326,15.0595 -0.7883,1.5655 -1.4429,3.011 -1.9334,4.1686 -0.5087,1.175 -0.8063,3.2087 -1.4943,3.5505 -15.5614,1.7882 -31.3704,8.895 -37.6986,13.1274 60.741,-9.863 137.1846,-13.0622 222.8803,0.029 -7.9606,-5.3487 -29.882,-13.6063 -54.0682,-15.3603 -0.3774,-0.2019 -0.1163,-0.3006 -0.4001,-0.5929 -0.7302,-0.7283 -1.4735,-1.3815 -2.1545,-1.9005 -0.4394,-0.3348 -0.8467,-0.6116 -1.2383,-0.8263 -2.1146,-0.8767 -2.4228,-1.4292 -3.205,-3.1905 -0.8822,-2.0043 -1.7257,-4.8623 -2.3726,-7.9708 -1.2943,-6.2203 -1.7625,-13.546 -0.7534,-17.2011 0.1522,-0.3597 0.3567,-0.6705 0.562,-1.0239 0.1329,-0.3131 0.6006,-0.2219 0.6056,0.1186 0.011,0.7591 0.2039,1.5134 0.7263,1.9917 0.7035,0.6438 1.5774,0.8863 2.7117,1.0677 1.1268,0.18 2.5232,0.2584 4.2894,0.2976 1.9167,0.044 4.4602,0.4968 5.4735,0.8512 0.2459,0.087 0.2876,0.416 0.071,0.5598 -0.8097,0.5371 -2.3254,1.3515 -3.538,1.7232 -1.0613,0.3253 -2.0058,1.0317 -2.9303,1.9314 -0.9203,0.8954 -1.7615,1.9742 -2.3518,3.1155 -0.9109,1.7615 -1.5116,2.8492 -1.3423,4.1978 0.169,1.3461 1.0329,2.2325 2.3435,3.6275 0.7893,0.8402 1.6236,1.5954 2.3704,2.1665 0.6747,0.6399 1.6021,0.9066 2.2207,1.0781 0.8946,0 1.2804,-0.3139 2.0375,-0.7514 0.7255,-0.4193 1.5697,-0.9891 2.5119,-1.6816 1.8844,-1.3846 4.1503,-3.2473 6.3954,-5.2258 2.2452,-1.9782 4.4659,-4.0715 6.254,-5.921 1.7925,-1.8543 3.107,-3.3201 3.7191,-4.6036 0.8864,-1.8587 1.4155,-3.0322 1.4256,-4.3226 0.011,-1.277 -0.5719,-2.3313 -1.4444,-3.6629 -0.6684,-1.0202 -1.7979,-2.0558 -3.2008,-3.1529 -1.3993,-1.0946 -3.0408,-2.1855 -4.641,-3.0345 -2.4112,-1.279 -3.6738,-2.1018 -4.2686,-2.8366 -4.3002,-3.6693 -2.9184,-6.9191 -4.0416,-8.4809 6.0851,-9.3605 7.7943,-18.3689 5.6962,-30.4165 -1.443,-8.2868 -4.7536,-15.5002 -20.5705,-45.0658 -2.3973,-4.4813 -4.149,-7.7193 -5.5858,-9.8857 -0.7194,-1.0848 -1.3483,-1.9021 -2.0167,-2.4995 -0.5525,-0.5283 -1.1382,-0.9384 -1.8002,-1.0157 z m -10.8908,21.1677 c 0.139,0 0.2732,0.018 0.3996,0.046 0.4597,0.1013 0.8213,0.3759 0.9823,0.9241 0.8302,2.8288 -2.9625,2.1858 -5.076,1.8709 -0.4692,-0.068 -2.0032,-0.4377 -1.3383,-0.8636 0.5975,-0.3822 1.0464,-0.6593 2.1,-1.1468 0.7346,-0.3398 1.9597,-0.8554 2.9324,-0.8304 z m -16.9512,77.4055 c 0.082,0 0.1621,0.017 0.2227,0.034 8.0103,1.8916 11.7426,2.8427 13.8439,5.2571 2.1042,2.4178 2.9728,6.8315 4.6078,16.021 1.3589,7.6378 2.3006,12.3783 3.2383,15.6069 0.6862,2.3624 1.4583,3.8346 2.3351,5.0863 0.1493,0.2154 -0.015,0.5079 -0.2768,0.4932 -10.1295,-0.5048 -20.3138,-0.9613 -28.97,-1.0718 -0.2265,0 -0.5367,-0.062 -0.9616,-0.1748 -0.4249,-0.1135 -0.9381,-0.2814 -1.4652,-0.5037 -1.045,-0.4404 -2.1852,-1.0574 -3.1113,-1.7169 -1.8466,-1.3148 -4.5005,-4.397 -6.5891,-7.4861 -1.0433,-1.5433 -1.9604,-3.0919 -2.5993,-4.4162 -0.3079,-0.6382 -0.5363,-1.2345 -0.6931,-1.7212 -0.4485,-0.8603 -0.1908,-1.0782 0,-1.7211 0.2326,-0.3618 0.6072,-0.824 1.0906,-1.3278 0.9655,-1.0062 2.3515,-2.1687 3.8918,-3.205 7.7113,-5.1873 12.4367,-9.5501 14.6744,-13.8336 0.789,-1.5103 1.3166,-2.3418 1.2051,-3.538 -0.042,-0.4492 -0.3283,-0.8911 -0.6536,-1.2634 -0.2865,-0.4479 -0.035,-0.5306 0.2103,-0.5181 z m -27.1178,5.5006 c 0.2823,0.011 0.411,0.3576 0.2017,0.5474 -2.5656,2.2943 -5.074,4.5798 -7.0259,6.4059 -2.0854,1.9509 -3.4811,3.2707 -4.0751,4.0021 -1.8145,2.2345 -2.3732,4.9222 -1.2154,7.9252 1.1659,3.0236 3.8027,6.5288 8.1854,11.4943 1.8245,2.0671 3.3388,3.6219 4.8887,5.2404 0.1873,0.1974 0.051,0.5231 -0.2207,0.5307 -14.1736,0.3496 -28.1057,1.1531 -41.1283,2.4454 -0.1141,0.011 -0.2263,-0.041 -0.2914,-0.1353 -0.2024,-0.2738 -0.4514,-0.6734 -0.6848,-1.0301 -0.1988,-0.388 -0.2573,-0.6509 -0.2455,-0.9533 0.014,-0.358 0.1566,-0.8143 0.4412,-1.5234 0.2847,-0.7091 0.7182,-1.6566 1.3299,-2.9157 1.6687,-3.4347 4.6329,-6.5052 10.3872,-10.5683 4.5531,-3.2148 15.7693,-11.4627 24.9721,-18.3643 1.9309,-1.4481 2.773,-1.9308 4.2853,-3.0407 0.056,-0.042 0.1252,-0.063 0.1956,-0.061 z"
         style="fill:url(#linearGradient19588);fill-opacity:1;stroke-width:1"
         id="path19578"
         inkscape:connector-curvature="0" />
      <path
         d="m 764.37212,-2724.6901 c -2.283,3.9227 -3.2331,8.6008 -6.2289,12.1041 -0.6199,0.6868 -1.5405,1.0744 -2.4392,1.0136 -2.4377,-1.2384 -6.0737,0.8817 -8.1604,2.1312 -0.9626,0.397 -0.9546,1.5196 -1.5713,2.2289 -1.7679,2.2659 -4.8306,2.6509 -7.4631,3.207 -3.0135,0.6579 -6.1666,0.7169 -9.0761,1.8003 -0.8555,0.098 -0.3771,0.9403 -0.2642,1.4796 0.9646,2.8387 2.4469,5.5963 4.6327,7.6797 0.9224,0.7284 2.1741,0.7999 3.2612,1.1612 1.0573,0.2587 2.4335,0.5921 3.6276,0.8409 4.2472,0.9414 8.7023,1.4051 12.6286,3.4007 1.6523,0.7826 2.0852,2.7051 2.2456,4.362 0.2022,8.3425 0.2221,15.2797 -3.0448,22.8994 -1.2473,-2.1163 -1.653,-3.3819 -3.7441,-7.5214 -0.046,-0.4408 -0.2033,-0.7515 -0.8054,-0.4308 -11.7639,2.4419 -23.4932,5.8285 -35.3426,8.2477 -14.1339,2.9224 -28.4275,4.9116 -42.7705,6.4642 -6.7841,0.7343 -13.5151,1.3709 -17.2884,1.6961 -0.063,0 -0.1896,0.016 -0.2519,0.022 -3.7322,0.3196 -3.538,0.3868 -3.18,0.4599 0.3881,0.078 0.9699,0.1657 1.1613,0.229 0.7652,0.1408 1.5363,0.2463 2.3039,0.3704 5.7166,0.9241 11.4953,1.4215 17.2864,1.5817 3.1521,0.087 6.3064,0.092 9.4547,0.012 4.2076,-0.1172 8.4029,-0.4911 12.585,-0.9532 0.4586,1.1767 1.2248,2.357 0.7951,3.6651 -1.0172,3.7855 -2.9584,7.2398 -4.1062,10.9844 -0.9764,2.5864 -1.4713,5.3229 -2.4684,7.8981 -2.5082,5.9965 -7.7396,10.3585 -13.255,13.5235 -0.8884,0.5213 -1.8489,0.9826 -2.7472,1.5192 -1.048,0.6261 -2.0092,1.3612 -2.6368,2.4662 -1.8104,2.9285 -2.6706,6.3081 -4.1312,9.407 -4.5495,7.3514 -7.5902,16.0147 -8.4267,18.4997 -0.1106,0.3287 -0.1825,0.5366 -0.2123,0.6077 3.4218,-0.6286 7.231,-0.7756 10.204,-0.9553 -0.4902,-1.496 -1.0184,-6.229 0.017,-7.9501 1.2648,-3.2178 2.902,-6.3438 5.2778,-8.8825 0.1666,-0.1781 0.3256,-0.3609 0.4996,-0.5328 4.1824,-4.2913 9.3785,-7.3739 14.1187,-10.9845 8.5397,-6.1873 16.9228,-12.5898 25.4363,-18.8118 4.0223,-2.8442 8.7886,-5.5995 13.8835,-5.8065 4.8386,-0.1886 9.1301,1.0539 13.8107,2.0666 4.3074,1.1051 8.8247,1.8269 12.7369,4.0541 3.106,1.7697 4.8777,5.096 5.7649,8.4496 1.4824,5.4882 2.2212,11.1394 3.3111,16.7119 0.7282,3.6935 1.401,7.6048 2.5911,11.2593 0.5162,1.7539 1.4918,3.3294 2.8138,4.5891 1.1906,1.3437 2.3808,2.6873 3.5713,4.0312 4.3159,0.3995 8.5248,0.8577 12.6036,1.3715 -1.2471,-1.2381 -2.423,-2.6314 -3.9916,-3.4236 -2.4701,-0.4483 -3.7574,-2.927 -4.6848,-5.0136 -2.1625,-5.3133 -3.1884,-11.0262 -3.7233,-16.7161 -0.2719,-3.8089 -0.4528,-7.7637 0.7535,-11.4402 1.7082,-4.0389 4.5304,-7.4774 7.3048,-10.8264 3.4699,-3.9173 7.0783,-7.7679 9.7963,-12.2706 3.2811,-5.1757 5.1325,-11.258 5.0988,-17.3986 -0.027,-5.2668 -0.7576,-10.5646 -2.3995,-15.5778 -2.5484,-7.2967 -6.2091,-14.1315 -9.7067,-21.0033 -4.0146,-7.6935 -8.0972,-15.4408 -12.2936,-23.0782 -0.9835,-1.6657 -1.9075,-3.4802 -3.1613,-4.9116 z m -10.7035,17.1239 c 0.139,0 0.2732,0.018 0.3996,0.046 0.4597,0.1013 0.8213,0.3759 0.9823,0.9241 0.8302,2.8288 -2.9625,2.1858 -5.076,1.8709 -0.4692,-0.068 -2.0032,-0.4377 -1.3383,-0.8636 0.5975,-0.3822 1.0464,-0.6593 2.1,-1.1468 0.7346,-0.3398 1.9597,-0.8554 2.9324,-0.8304 z m 33.1033,72.0777 c -0.1224,-0.011 -0.2925,0.1012 -0.5286,0.3788 -1.9892,1.4816 -7.0349,7.5452 -9.8794,11.9064 -0.093,0.4698 0.8437,3.8802 1.6233,3.971 3.0114,0.3798 6.0926,0.1469 9.0595,0.9032 1.7997,0.4384 3.9734,1.1009 4.643,3.0385 0.4384,1.6827 -0.7698,3.1878 -2.1061,4.05 -1.5591,1.1097 -3.371,1.7787 -5.1364,2.4641 -1.868,1.2037 -3.0704,3.2017 -3.7918,5.2591 0.9909,1.3655 2.214,2.5759 3.5566,3.5985 3.8741,-2.4147 7.2784,-5.4998 10.6598,-8.5475 2.4014,-2.2918 4.914,-4.5328 6.8451,-7.2508 0.4312,-1.0442 1.2175,-2.096 1.1342,-3.2592 -1.0509,-2.4827 -3.4687,-3.9574 -5.5984,-5.4278 -2.6544,-1.7513 -8.0481,-5.1617 -9.7253,-8.0604 -0.5596,-0.6834 -0.2251,-2.9806 -0.7555,-3.0239 z m -62.267,4.0125 c -1.8638,0.203 -3.3466,1.7182 -4.7866,2.8263 -5.4782,4.7353 -12.3498,11.3666 -17.5507,16.406 -1.2798,1.1031 -2.2587,2.856 -1.6109,4.5619 1.0891,3.2138 3.395,5.8163 5.4819,8.4246 3.7704,4.5336 7.8829,8.7617 12.0231,12.9554 a 117.46843,26.912955 0 0 1 6.7637,-0.046 117.46843,26.912955 0 0 1 2.6993,0.012 c -1.3163,-0.5925 -2.5674,-1.3515 -3.7232,-2.1748 -3.5825,-2.9144 -6.3251,-6.7257 -8.7181,-10.6411 -1.1907,-2.1877 -2.6016,-4.4909 -2.5598,-7.0615 0.3084,-2.2338 2.1192,-3.8566 3.692,-5.3112 2.8625,-2.4821 6.2073,-4.3275 9.1053,-6.7701 3.189,-2.6056 6.5449,-6.1845 8.233,-10.0292 -0.8765,-0.5939 -0.9656,-2.2199 -1.332,-2.2768 -2.405,-0.3735 -4.2733,-0.5793 -6.8949,-0.8721 -0.2828,-0.03 -0.5558,-0.029 -0.8221,0 z"
         style="fill:#ffffff;fill-opacity:1;stroke-width:1"
         id="path19580"
         inkscape:connector-curvature="0" />
    </g>
  </g>
</svg>
