<?xml version="1.0" encoding="UTF-8" standalone="no"?>
<!-- Created with Inkscape (http://www.inkscape.org/) -->

<svg
   width="69.167023mm"
   height="43.035488mm"
   viewBox="0 0 69.167023 43.035488"
   version="1.1"
   id="svg11303"
   inkscape:version="1.1 (1:1.1+202105261517+ce6663b3b7)"
   sodipodi:docname="5-golden-ram-line.svg"
   xmlns:inkscape="http://www.inkscape.org/namespaces/inkscape"
   xmlns:sodipodi="http://sodipodi.sourceforge.net/DTD/sodipodi-0.dtd"
   xmlns="http://www.w3.org/2000/svg"
   xmlns:svg="http://www.w3.org/2000/svg">
  <sodipodi:namedview
     id="namedview11305"
     pagecolor="#ffffff"
     bordercolor="#666666"
     borderopacity="1.0"
     inkscape:pageshadow="2"
     inkscape:pageopacity="0.0"
     inkscape:pagecheckerboard="0"
     inkscape:document-units="mm"
     showgrid="false"
     inkscape:zoom="0.75187991"
     inkscape:cx="306.56491"
     inkscape:cy="132.33496"
     inkscape:window-width="1848"
     inkscape:window-height="1016"
     inkscape:window-x="72"
     inkscape:window-y="27"
     inkscape:window-maximized="1"
     inkscape:current-layer="layer1" />
  <defs
     id="defs11300" />
  <g
     inkscape:label="Layer 1"
     inkscape:groupmode="layer"
     id="layer1"
     transform="translate(-23.831163,-113.61017)">
    <path
       inkscape:connector-curvature="0"
       id="path16848"
       d="m 38.059183,113.61734 c -1.666822,-0.0254 -3.343751,0.20029 -4.963794,0.73691 -3.240141,1.07339 -6.195748,3.4535 -8.10514,7.253 l -0.02302,0.046 -0.02064,0.0471 c -2.557938,5.89103 -0.690192,13.4421 5.333154,16.24351 4.844071,2.25293 11.172428,0.53264 13.391964,-4.70783 1.654202,-3.90597 0.184838,-9.00589 -4.177559,-10.57728 -1.509845,-0.54382 -3.153965,-0.50646 -4.630631,0.0897 -1.476719,0.59624 -2.822602,1.87621 -3.269642,3.6663 -0.278342,1.11464 -0.151447,2.23814 0.384837,3.28451 0.536204,1.04622 1.747149,2.0514 3.227413,2.06354 a 1.8244174,1.8244174 0 1 0 0.05064,-3.64731 c 0.0082,0.0536 -0.05477,0 -0.02011,0 a 1.8244174,1.8244174 0 0 1 0.02011,0 c -0.0058,-0.0159 -0.01005,-0.0394 -0.03061,-0.0802 -0.09001,-0.17561 -0.128772,-0.58693 -0.09149,-0.73639 0.145203,-0.58134 0.494453,-0.92469 1.095613,-1.16745 0.601186,-0.2427 1.417637,-0.26043 2.028534,-0.0401 2.16527,0.77997 2.962407,3.5773 2.054066,5.72209 -1.340009,3.16384 -5.395754,4.26321 -8.493522,2.8225 -3.92938,-1.82753 -5.350801,-7.20254 -3.541025,-11.43413 1.519132,-2.99495 3.596879,-4.59914 5.965032,-5.38366 2.34606,-0.77721 5.029888,-0.68845 7.572454,0.0401 2.350108,1.0391 3.792432,2.59781 4.8124,4.6877 1.034283,2.11907 1.56673,4.80155 1.804062,7.74703 0.05538,0.68733 0.093,1.38766 0.119935,2.09624 a 1.8244174,1.8244174 0 0 0 0.02064,0.65852 c 0.144727,5.17226 -0.266145,10.7561 0.456062,15.45553 0.183198,1.40766 0.97536,2.4122 1.835521,3.30287 0.864446,0.89514 1.88333,1.67516 2.870543,2.35093 1.538288,1.05307 2.997809,1.83682 3.581374,2.13902 a 1.8244174,1.8244174 0 0 0 1.114637,0.34912 1.8244174,1.8244174 0 0 0 1.090242,-0.35272 c 0.592005,-0.30696 2.046684,-1.08971 3.574256,-2.13542 0.987187,-0.67577 2.005515,-1.45579 2.869962,-2.35093 0.860901,-0.89149 1.653857,-1.8968 1.836102,-3.30642 0.725488,-4.7244 0.306202,-10.34169 0.457809,-15.53628 7.9e-5,0 0,0 0,-0.006 a 1.8244174,1.8244174 0 0 0 0.01402,-0.48868 c 0.02709,-0.73745 0.06649,-1.46593 0.124116,-2.18052 0.237331,-2.9455 0.769831,-5.62797 1.804061,-7.74713 1.019969,-2.08981 2.462874,-3.64852 4.81293,-4.68762 2.542566,-0.72879 5.226499,-0.81756 7.572454,-0.0406 2.368206,0.78449 4.445952,2.38868 5.965031,5.38361 1.809777,4.23164 0.388408,9.6066 -3.540972,11.4341 -3.097768,1.44079 -7.154121,0.34137 -8.494103,-2.82242 -0.908341,-2.14479 -0.110702,-4.94217 2.054648,-5.72209 0.610843,-0.22008 1.426766,-0.20235 2.027899,0.04 0.601133,0.24276 0.951045,0.58614 1.096195,1.16748 0.03709,0.14938 0,0.56078 -0.09202,0.73633 -0.02064,0.0406 -0.02828,0.0641 -0.03064,0.0802 a 1.8244174,1.8244174 0 0 1 0.02064,0 c 0.03474,0 -0.02948,0.0542 -0.02064,0 a 1.8244174,1.8244174 0 1 0 0.05067,3.64728 c 1.480264,-0.0116 2.691262,-1.01724 3.227467,-2.06353 0.536231,-1.0463 0.663178,-2.1698 0.384783,-3.28444 -0.44704,-1.79014 -1.793451,-3.07012 -3.27017,-3.66633 -1.476719,-0.59618 -3.120205,-0.63352 -4.630103,-0.0896 -4.362423,1.57139 -5.83176,6.67131 -4.177506,10.57725 2.219457,5.24042 8.547867,6.96079 13.391965,4.70786 6.023292,-2.80141 7.89051,-10.35253 5.332544,-16.24351 l -0.02011,-0.0471 -0.02302,-0.046 c -1.909445,-3.79957 -4.864417,-6.17961 -8.104557,-7.253 -1.620097,-0.5367 -3.296973,-0.76213 -4.963795,-0.73691 -1.666796,0.0254 -3.323776,0.30136 -4.903814,0.76718 l -0.105093,0.0306 -0.100965,0.0436 c -3.201723,1.38054 -5.396521,3.73872 -6.737561,6.48642 -1.341015,2.74762 -1.904921,5.86221 -2.162096,9.05465 -0.04241,0.52625 -0.07453,1.05624 -0.102156,1.58729 l -3.222704,1.83851 a 1.8244174,1.8244174 0 1 0 1.807607,3.1692 l 1.310587,-0.74763 c -0.02064,4.48342 0.151342,8.8179 -0.361659,12.13009 l -0.0058,0.0259 -0.0058,0.0259 c -0.0095,0.0725 -0.252359,0.6286 -0.844417,1.24169 -0.592058,0.6131 -1.445154,1.28516 -2.3064,1.87476 -1.005072,0.68797 -1.961356,1.23709 -2.619983,1.59737 -0.658575,-0.36028 -1.614276,-0.9094 -2.619375,-1.59737 -0.861219,-0.5896 -1.714288,-1.26166 -2.306426,-1.87476 -0.592005,-0.61309 -0.835342,-1.16916 -0.844418,-1.24169 l -0.0058,-0.0259 -0.0058,-0.0259 c -0.512657,-3.31005 -0.341075,-7.64096 -0.361633,-12.1212 l 1.295162,0.73874 a 1.8244174,1.8244174 0 1 0 1.807607,-3.1692 l -3.207279,-1.82904 c -0.02768,-0.53422 -0.05948,-1.06738 -0.102129,-1.59676 -0.257255,-3.19244 -0.8205,-6.30703 -2.161514,-9.05465 -1.341067,-2.7477 -3.535839,-5.10588 -6.737561,-6.48642 l -0.100965,-0.0436 -0.105093,-0.0306 c -1.580039,-0.46582 -3.237018,-0.74197 -4.90384,-0.76718 z"
       style="color:#000000;font-style:normal;font-variant:normal;font-weight:normal;font-stretch:normal;font-size:medium;line-height:normal;font-family:sans-serif;font-variant-ligatures:normal;font-variant-position:normal;font-variant-caps:normal;font-variant-numeric:normal;font-variant-alternates:normal;font-feature-settings:normal;text-indent:0;text-align:start;text-decoration:none;text-decoration-line:none;text-decoration-style:solid;text-decoration-color:#000000;letter-spacing:normal;word-spacing:normal;text-transform:none;writing-mode:lr-tb;direction:ltr;text-orientation:mixed;dominant-baseline:auto;baseline-shift:baseline;text-anchor:start;white-space:normal;shape-padding:0;clip-rule:nonzero;display:inline;overflow:visible;visibility:visible;isolation:auto;mix-blend-mode:normal;color-interpolation:sRGB;color-interpolation-filters:linearRGB;solid-color:#000000;solid-opacity:1;vector-effect:none;fill:#d4aa00;fill-opacity:1;fill-rule:evenodd;stroke:none;stroke-width:3.64847;stroke-linecap:round;stroke-linejoin:miter;stroke-miterlimit:4;stroke-dasharray:none;stroke-dashoffset:0;stroke-opacity:1;color-rendering:auto;image-rendering:auto;shape-rendering:auto;text-rendering:auto;enable-background:accumulate" />
  </g>
</svg>
