<?xml version="1.0" encoding="iso-8859-1"?>
<!-- Generator: Adobe Illustrator 19.0.0, SVG Export Plug-In . SVG Version: 6.00 Build 0)  -->
<svg version="1.1" id="Capa_1" xmlns="http://www.w3.org/2000/svg" xmlns:xlink="http://www.w3.org/1999/xlink" x="0px" y="0px"
	 viewBox="0 0 512 512" style="enable-background:new 0 0 512 512;" xml:space="preserve" width="100" height="121">
<g>
	<g>
		<path d="M497,0h-60c-8.284,0-15,6.716-15,15v15H298.42C292.228,12.542,275.555,0,256,0s-36.228,12.542-42.42,30H90V15
			c0-8.284-6.716-15-15-15H15C6.716,0,0,6.716,0,15v60c0,8.284,6.716,15,15,15h60c8.284,0,15-6.716,15-15V59.8h62.377
			c-54.116,34.274-87.012,92.175-90.969,153.642C43.738,219.518,31,236.294,31,256c0,24.813,20.187,45,45,45s45-20.187,45-45
			c0-19.38-12.315-35.938-29.53-42.26c5.326-70.647,56.198-131.494,124.226-148.758C223.07,79.794,238.361,90,256,90
			c17.639,0,32.93-10.206,40.304-25.017c68.029,17.264,118.9,78.111,124.226,148.758C403.315,220.062,391,236.62,391,256
			c0,24.813,20.187,45,45,45s45-20.187,45-45c0-19.706-12.738-36.482-30.408-42.558C446.627,151.852,413.633,94.207,359.623,60H422
			v15c0,8.284,6.716,15,15,15h60c8.284,0,15-6.716,15-15V15C512,6.716,505.284,0,497,0z M60,60H30V30h30V60z M76,271
			c-8.271,0-15-6.729-15-15s6.729-15,15-15s15,6.729,15,15S84.271,271,76,271z M256,60c-8.271,0-15-6.729-15-15s6.729-15,15-15
			s15,6.729,15,15S264.271,60,256,60z M436,241c8.271,0,15,6.729,15,15s-6.729,15-15,15s-15-6.729-15-15S427.729,241,436,241z
			 M482,60h-30V30h30V60z"/>
	</g>
</g>
<g>
	<g>
		<path d="M388.48,307.679l-120-179.999c-0.004-0.006-0.009-0.012-0.013-0.019c-0.043-0.064-0.09-0.125-0.134-0.188
			c-0.206-0.299-0.423-0.587-0.649-0.868c-6.321-7.854-18.357-7.324-24.017,0.868c-0.044,0.063-0.091,0.124-0.134,0.188
			c-0.004,0.007-0.009,0.012-0.013,0.019l-120,180c-3.967,5.949-3.182,13.871,1.874,18.927
			c29.927,29.927,48.975,69.047,54.164,110.901c-2.329,1.883-4.578,3.899-6.71,6.081C158.759,458.001,151,476.97,151,497
			c0,8.284,6.716,15,15,15h180c8.284,0,15-6.716,15-15c0-20.03-7.759-38.999-21.847-53.412c-2.133-2.182-4.381-4.198-6.711-6.081
			c5.188-41.856,24.236-80.976,54.163-110.9C391.662,321.551,392.447,313.628,388.48,307.679z M256,301c8.271,0,15,6.729,15,15
			s-6.729,15-15,15s-15-6.729-15-15S247.729,301,256,301z M183.558,482c6.241-17.833,23.159-31,42.442-31h60
			c19.283,0,36.201,13.167,42.442,31H183.558z M304.245,423.283C298.345,421.777,292.229,421,286,421h-60
			c-6.229,0-12.345,0.777-18.245,2.284c-7.02-40.429-25.251-78.221-52.65-108.899L241,185.542v88.039
			c-17.459,6.192-30,22.865-30,42.42c0,24.813,20.187,45,45,45s45-20.187,45-45c0-19.555-12.541-36.228-30-42.42v-88.039
			l85.896,128.843C329.496,345.06,311.264,382.853,304.245,423.283z"/>
	</g>
</g>
<g>
</g>
<g>
</g>
<g>
</g>
<g>
</g>
<g>
</g>
<g>
</g>
<g>
</g>
<g>
</g>
<g>
</g>
<g>
</g>
<g>
</g>
<g>
</g>
<g>
</g>
<g>
</g>
<g>
</g>
</svg>
